<?xml version="1.0" standalone="no"?><!DOCTYPE svg PUBLIC "-//W3C//DTD SVG 1.1//EN" "http://www.w3.org/Graphics/SVG/1.1/DTD/svg11.dtd"><svg t="1614342955573" class="icon" viewBox="0 0 1032 1024" version="1.1" xmlns="http://www.w3.org/2000/svg" p-id="4556" xmlns:xlink="http://www.w3.org/1999/xlink" width="201.5625" height="200"><defs><style type="text/css"></style></defs><path d="M514.906 947.7c-113.652 0-234.983-35.418-324.557-94.734C109.35 799.334 12.8 699.098 12.8 526.182c0-68.057 13.312-133.99 39.552-195.968 25.434-60.07 61.9-113.932 108.378-160.115C256.512 74.957 384.909 22.566 522.266 22.566c66.099 0 130.598 13.338 191.718 39.642 59.098 25.434 112.32 61.747 158.208 107.955 46.042 46.362 82.227 100.211 107.571 160.051 26.355 62.221 39.719 128.167 39.719 195.968 0 73.882-16.5 140.493-49.037 197.952-29.056 51.316-70.771 95.27-123.994 130.65-88.832 59.06-209.677 92.915-331.545 92.915z" fill="#FFEB73" p-id="4557"></path><path d="M522.266 35.366c263.04 0 484.403 219.904 484.403 490.816 0 302.9-282.266 408.717-491.763 408.717C320.666 934.9 25.6 824.18 25.6 526.182c0-270.912 218.854-490.816 496.666-490.816m0-25.6c-71.258 0-140.122 13.645-204.66 40.564-62.284 25.984-118.105 63.219-165.888 110.694-47.667 47.347-85.068 102.592-111.155 164.198C13.645 388.8 0 456.41 0 526.182 0 667.546 63.373 784.23 183.283 863.63c48.602 32.179 104.615 57.088 166.477 73.997 54.694 14.95 111.795 22.86 165.146 22.86 57.152 0 116.518-7.641 171.712-22.105 62.617-16.41 118.77-40.947 166.912-72.947 54.912-36.506 97.996-81.92 128.05-135.002 33.64-59.418 50.702-128.14 50.702-204.262 0-69.543-13.696-137.152-40.73-200.96-25.984-61.35-63.078-116.557-110.272-164.07-47.04-47.374-101.632-84.622-162.227-110.695C656.32 23.45 590.118 9.766 522.266 9.766z" fill="#231815" p-id="4558"></path><path d="M203.021 386.496a110.144 110.144 0 1 0 220.288 0 110.144 110.144 0 1 0-220.288 0z" fill="#FFFFFF" p-id="4559"></path><path d="M313.165 499.2c-62.144 0-112.704-50.56-112.704-112.704s50.56-112.704 112.704-112.704 112.704 50.56 112.704 112.704S375.309 499.2 313.165 499.2z m0-220.288c-59.328 0-107.584 48.256-107.584 107.584S253.837 494.08 313.165 494.08s107.584-48.256 107.584-107.584-48.256-107.584-107.584-107.584z" fill="#281911" p-id="4560"></path><path d="M222.212 425.625a99.546 103.283 71.677 1 0 196.093-64.939 99.546 103.283 71.677 1 0-196.093 64.94z" fill="#2D1F0B" p-id="4561"></path><path d="M300.633 369.344a39.13 39.13 0 1 0 78.26 0 39.13 39.13 0 1 0-78.26 0zM268.313 440.82a20.34 20.34 0 1 0 40.679 0 20.34 20.34 0 1 0-40.678 0z" fill="#FFFFFF" p-id="4562"></path><path d="M217.306 288.755l10.188 23.783L245.85 297.6z" fill="#2D1F0B" p-id="4563"></path><path d="M609.088 386.496a110.144 110.144 0 1 0 220.288 0 110.144 110.144 0 1 0-220.288 0z" fill="#FFFFFF" p-id="4564"></path><path d="M719.232 499.2c-62.144 0-112.704-50.56-112.704-112.704s50.56-112.704 112.704-112.704 112.704 50.56 112.704 112.704S781.376 499.2 719.232 499.2z m0-220.288c-59.315 0-107.584 48.256-107.584 107.584S659.917 494.08 719.232 494.08c59.328 0 107.584-48.256 107.584-107.584S778.56 278.912 719.232 278.912z" fill="#281911" p-id="4565"></path><path d="M680.869 487.59a103.283 99.546 18.325 1 0 62.595-188.994A103.283 99.546 18.325 1 0 680.87 487.59z" fill="#2D1F0B" p-id="4566"></path><path d="M653.504 369.344a39.13 39.13 0 1 0 78.26 0 39.13 39.13 0 1 0-78.26 0zM723.404 440.82a20.34 20.34 0 1 0 40.68 0 20.34 20.34 0 1 0-40.68 0z" fill="#FFFFFF" p-id="4567"></path><path d="M815.091 288.755l-10.189 23.783-18.355-14.938z" fill="#2D1F0B" p-id="4568"></path><path d="M703.91 644.365c-0.473 0.205-0.921 0.422-1.42 0.627-28.775 11.917-100.07 20.326-183.527 20.48h-6.118c-83.456-0.154-154.752-8.563-183.527-20.48-0.499-0.205-0.947-0.41-1.408-0.614-4.595-1.959-8.09-4.007-10.265-6.119 2.189 10.688 5.683 21.018 10.265 30.912 0.474 1.05 0.922 2.1 1.408 3.136 28.775 60.199 100.07 102.682 183.527 103.437 0.115 0 0.217 0.013 0.32 0.013 0.921 0.013 1.817-0.013 2.739 0 0.909 0 1.818 0.013 2.74 0 0.114 0 0.217-0.013 0.32-0.013 83.455-0.755 154.751-43.238 183.526-103.437 0.499-1.037 0.947-2.099 1.42-3.136 4.583-9.894 8.077-20.224 10.266-30.912-2.189 2.1-5.67 4.147-10.266 6.106z" fill="#BB1305" p-id="4569"></path><path d="M715.226 636.966c-46.81 14.81-159.053 26.752-159.053 26.752-138.483 8.244-239.783-25.792-239.783-25.792 0.474 12.903 14.81 37.261 14.81 37.261 31.526 10.035 271.782 7.642 271.782 7.642 36.775-0.96 44.416 10.982 44.416 10.982l67.828-56.845z" fill="#FFFFFF" p-id="4570"></path><path d="M377.152 730.829s126.106-57.792 280.384-2.867c0 0-3.302 3.443-10.06 8.473-7.156 5.338-21.057 12.467-36.11 19.2-23.052 10.291-56.627 19.635-92.736 20.096-25.728 0.333-57.062-3.84-87.45-15.373-3.698-1.408-13.145-5.785-16.908-7.398-14.835-6.451-21.517-11.802-37.12-22.131z" fill="#FF645F" p-id="4571"></path><path d="M747.34 1001.331H285.03c-38.694 0-70.361-31.654-70.361-70.361V796.646c0-38.694 31.654-70.361 70.361-70.361h462.31c38.695 0 70.362 31.654 70.362 70.361V930.97c0 38.694-31.667 70.361-70.361 70.361z" fill="#BB1305" p-id="4572"></path><path d="M747.34 1012.851H285.03c-45.145 0-81.881-36.736-81.881-81.881V796.646c0-45.145 36.736-81.881 81.881-81.881h462.31c45.146 0 81.882 36.736 81.882 81.881V930.97c0 45.145-36.736 81.881-81.881 81.881zM285.03 737.805c-32.448 0-58.841 26.393-58.841 58.841V930.97c0 32.448 26.393 58.841 58.841 58.841h462.31c32.449 0 58.842-26.393 58.842-58.841V796.646c0-32.448-26.393-58.841-58.841-58.841H285.03z" fill="#231815" p-id="4573"></path><path d="M140.877 967.373c-21.466 0-39.795-7.437-54.451-22.093l-0.384-0.384-0.346-0.41c-1.562-1.843-9.178-11.404-10.06-22.81-0.82-4.85-3.79-26.495 2.943-53.298 6.9-27.47 25.613-65.997 75.648-93.62l0.269-0.153 0.282-0.141c1.024-0.5 10.33-4.915 20.505-4.915 13.658 0 23.834 7.897 27.213 21.12 0.166 0.64 0.358 1.574 0.46 2.777 10.996-3.724 23.655-6.31 37.62-6.31 9.51 0 19.149 1.19 28.646 3.558l1.485 0.372 1.357 0.704c1.395 0.73 13.952 7.552 23.066 21.785 8.678 13.543 15.73 36.199 0.064 67.226l-0.167 0.32-0.179 0.307c-1.613 2.79-17.74 28.288-88.576 65.894-4.442 2.79-33.165 20.07-65.395 20.07z" fill="#FFEB73" p-id="4574"></path><path d="M175.27 782.336c6.208 0 12.506 2.47 14.81 11.494 0 0 2.842 10.663-17.306 30.132-6.528 5.017-10.06 8.832-10.06 8.832 3.865-3.124 7.193-6.068 10.06-8.832 12.647-9.728 36.557-24.026 67.79-24.026 8.063 0 16.6 0.947 25.574 3.174 0 0 42.662 22.26 17.625 71.885 0 0-13.913 24.115-83.942 61.223 0 0-28.032 18.342-58.957 18.342-15.462 0-31.642-4.582-45.402-18.342 0 0-6.77-8.026-7.116-16.077 0 0-17.012-85.03 72.038-134.195 0.013 0.012 7.386-3.61 14.886-3.61m0-25.6c-12.48 0-23.168 4.774-26.137 6.234l-0.55 0.268-0.538 0.295C93.99 793.37 73.69 835.315 66.176 865.242c-7.104 28.313-4.352 51.187-3.238 58.048 1.356 14.604 10.201 26.137 12.979 29.427l0.691 0.832 0.768 0.768c16.909 16.909 38.86 25.843 63.5 25.843 34.894 0 65.025-17.536 71.847-21.811 30.349-16.141 54.63-32.077 72.167-47.373 13.939-12.16 19.366-20.275 21.056-23.194l0.358-0.614 0.32-0.64c7.744-15.36 11.29-30.515 10.522-45.056-0.666-12.506-4.442-24.23-11.239-34.842-10.675-16.665-25.126-24.768-27.917-26.227l-2.713-1.408-2.97-0.742c-10.509-2.611-21.184-3.93-31.731-3.93a127.232 127.232 0 0 0-29.376 3.443c-6.9-13.184-19.955-21.03-35.93-21.03z" fill="#231815" p-id="4575"></path><path d="M890.867 967.373c-32.23 0-60.953-17.28-65.408-20.083-70.848-37.607-86.976-63.104-88.576-65.895l-0.179-0.307-0.166-0.32c-15.655-31.027-8.602-53.683 0.064-67.226 9.113-14.233 21.657-21.043 23.065-21.785l1.357-0.704 1.485-0.371c9.497-2.356 19.136-3.559 28.646-3.559 13.978 0 26.637 2.573 37.632 6.31 0.103-1.254 0.307-2.227 0.487-2.905 3.353-13.107 13.53-21.005 27.187-21.005 10.176 0 19.481 4.416 20.505 4.915l0.282 0.141 0.269 0.154c50.022 27.622 68.749 66.15 75.648 93.619 6.733 26.816 3.763 48.448 2.944 53.3-0.883 11.391-8.5 20.966-10.061 22.809l-0.346 0.41-0.384 0.383c-14.668 14.682-32.985 22.119-54.45 22.119z" fill="#FFEB73" p-id="4576"></path><path d="M856.46 782.336c7.502 0 14.874 3.61 14.874 3.61 89.05 49.164 72.039 134.195 72.039 134.195-0.346 8.051-7.117 16.077-7.117 16.077-13.76 13.76-29.94 18.342-45.402 18.342-30.912 0-58.956-18.342-58.956-18.342-70.03-37.108-83.943-61.223-83.943-61.223-25.05-49.625 17.626-71.885 17.626-71.885 8.973-2.227 17.51-3.174 25.574-3.174 31.245 0 55.143 14.298 67.789 24.026 2.867 2.764 6.195 5.708 10.06 8.832 0 0-3.532-3.802-10.06-8.832-20.147-19.456-17.306-30.132-17.306-30.132 2.317-9.024 8.628-11.494 14.823-11.494m0-25.6c-15.975 0-29.03 7.846-35.93 21.043-9.037-2.125-18.867-3.443-29.376-3.443-10.547 0-21.222 1.318-31.731 3.93l-2.97 0.742-2.713 1.408c-2.79 1.46-17.255 9.562-27.917 26.227-6.797 10.611-10.573 22.336-11.238 34.842-0.768 14.54 2.777 29.696 10.521 45.056l0.32 0.64 0.359 0.614c2.93 5.069 21.132 32.218 93.222 70.567 6.822 4.275 36.954 21.81 71.846 21.81 24.64 0 46.592-8.934 63.501-25.842l0.768-0.768 0.691-0.832c2.778-3.303 11.623-14.823 12.98-29.428 1.126-6.86 3.878-29.734-3.239-58.048-7.513-29.926-27.814-71.872-81.869-101.708l-0.537-0.295-0.55-0.269c-2.97-1.472-13.658-6.246-26.138-6.246z" fill="#231815" p-id="4577"></path><path d="M423.22 914.509c-1.882-1.523-2.958-3.251-3.226-5.184-0.103-0.781-0.154-3.008-0.154-6.669V891.43h32.909c4.032 0 7.36-1.28 9.971-3.852 2.611-2.612 3.93-6.592 3.93-11.943v-21.593c0-6.183-0.704-10.42-2.125-12.724-2.56-4.185-7.091-6.284-13.594-6.284h-32.358c-3.827 0-7.015 1.33-9.587 4.006-2.51 2.624-3.776 6.208-3.776 10.765h39.027c2.355 0 3.904 0.051 4.633 0.153 0.73 0.154 1.408 0.576 2.036 1.255 0.73 0.832 1.1 2.432 1.1 4.787v14.771c0 2.355-0.422 3.981-1.254 4.864-0.78 0.832-2.432 1.255-4.954 1.255h-40.601v33.536c0 5.913 1.958 10.841 5.888 14.77 3.61 3.61 8.422 5.415 14.451 5.415h66.368v-14.528h-62.822c-2.548-0.013-4.506-0.537-5.863-1.574z" fill="#FFFFFF" p-id="4578"></path><path d="M471.834 807.373h-48.295l2.752-10.291H411.29c-0.948 5.49-1.856 9.318-2.752 11.468-0.845 2.15-2.51 4.608-5.03 7.386v20.262c3.506-2.252 6.015-4.083 7.538-5.49 1.83-1.678 4.186-4.609 7.066-8.794h50.816c5.709 0 8.563 3.225 8.563 9.664v47.04c0 3.033-0.947 5.26-2.829 6.681-1.779 1.357-3.686 2.035-5.734 2.035h-2.202v14.452h3.61c3.136 0 5.414-0.154 6.835-0.474 2.407-0.525 4.762-1.626 7.066-3.302 5.184-3.828 7.77-9.319 7.77-16.487v-55.45c0-4.979-1.882-9.318-5.658-13.043-3.815-3.763-8.653-5.657-14.515-5.657z m-89.306 18.7h14.605v-15.231h-14.605v-13.824H368.09v13.824h-20.736v15.232h20.736v36.21c-4.762 2.458-8.384 4.11-10.842 4.954-2.406 0.781-5.709 1.472-9.894 2.048v15.002c3.93-0.474 6.886-0.909 8.87-1.331 2.88-0.576 6.835-1.933 11.866-4.083v26.777c0 3.456-0.87 6.029-2.599 7.693-1.677 1.626-4.813 2.432-9.42 2.432h-4.327v14.771h5.734c5.812 0 9.639-0.281 11.47-0.857 4.185-1.408 7.59-4.007 10.214-7.77 2.252-3.251 3.379-8.512 3.379-15.782v-36.365c5.709-3.405 10.841-5.888 15.398-7.463v-14.77c-5.44 1.471-10.573 3.353-15.398 5.657v-27.123h-0.013z m296.845-13.043c-3.827-3.776-8.666-5.657-14.528-5.657h-48.307l2.752-10.291h-15.002c-0.947 5.49-1.856 9.318-2.752 11.468-0.845 2.15-2.509 4.608-5.03 7.386v20.262c3.507-2.252 6.016-4.083 7.539-5.49 1.83-1.678 4.185-4.609 7.065-8.794h50.816c5.71 0 8.564 3.225 8.564 9.664v47.04c0 3.033-0.948 5.26-2.83 6.681-1.778 1.357-3.686 2.035-5.734 2.035h-2.201v14.452h3.61c3.148 0 5.414-0.154 6.835-0.474 2.406-0.525 4.761-1.626 7.065-3.302 5.184-3.828 7.77-9.319 7.77-16.487v-55.45c0.025-4.979-1.869-9.318-5.632-13.043z" fill="#FFFFFF" p-id="4579"></path><path d="M616.23 914.509c-1.881-1.523-2.956-3.251-3.225-5.184-0.103-0.781-0.154-3.008-0.154-6.669V891.43h32.909c4.032 0 7.36-1.28 9.971-3.852 2.611-2.612 3.93-6.592 3.93-11.943v-21.593c0-6.183-0.704-10.42-2.125-12.724-2.56-4.185-7.091-6.284-13.58-6.284h-32.36c-3.826 0-7.014 1.33-9.586 4.006-2.51 2.624-3.776 6.208-3.776 10.765h39.027c2.355 0 3.904 0.051 4.633 0.153 0.73 0.154 1.408 0.576 2.048 1.255 0.73 0.832 1.101 2.432 1.101 4.787v14.771c0 2.355-0.422 3.981-1.254 4.864-0.781 0.832-2.432 1.255-4.954 1.255h-40.601v33.638c0.025 5.862 1.984 10.752 5.888 14.656 3.61 3.61 8.435 5.414 14.45 5.414h66.369V916.07h-62.823c-2.572 0-4.53-0.524-5.888-1.561z m-40.69-88.435h14.604v-15.232h-14.605v-13.824h-14.451v13.824h-20.736v15.232h20.736v36.21c-4.762 2.458-8.371 4.11-10.842 4.954-2.406 0.781-5.708 1.472-9.894 2.048v15.002c3.93-0.474 6.886-0.909 8.87-1.331 2.88-0.576 6.836-1.933 11.853-4.083v26.777c0 3.456-0.857 6.029-2.598 7.693-1.677 1.626-4.813 2.432-9.421 2.432h-4.326v14.771h5.734c5.811 0 9.638-0.281 11.469-0.857 4.185-1.408 7.59-4.007 10.214-7.77 2.253-3.251 3.38-8.512 3.38-15.782v-36.365c5.708-3.405 10.841-5.888 15.398-7.463v-14.77c-5.44 1.471-10.573 3.353-15.399 5.657l0.013-27.123z" fill="#FFFFFF" p-id="4580"></path></svg>