<?xml version="1.0" standalone="no"?><!DOCTYPE svg PUBLIC "-//W3C//DTD SVG 1.1//EN" "http://www.w3.org/Graphics/SVG/1.1/DTD/svg11.dtd"><svg t="1614958234315" class="icon" viewBox="0 0 1024 1024" version="1.1" xmlns="http://www.w3.org/2000/svg" p-id="6534" xmlns:xlink="http://www.w3.org/1999/xlink" width="200" height="200"><defs><style type="text/css"></style></defs><path d="M397.784615 389.907692c0 35.446154 23.630769 63.015385 86.646154 82.707692L484.430769 311.138462C429.292308 315.076923 401.723077 342.646154 397.784615 389.907692zM523.815385 531.692308l0 181.169231c63.015385-3.938462 98.461538-35.446154 102.4-90.584615C630.153846 582.892308 598.646154 551.384615 523.815385 531.692308zM508.061538 11.815385C236.307692 11.815385 15.753846 232.369231 15.753846 504.123077c0 271.753846 220.553846 492.307692 492.307692 492.307692s492.307692-220.553846 492.307692-492.307692C1000.369231 232.369231 779.815385 11.815385 508.061538 11.815385zM523.815385 764.061538l0 74.830769-39.384615 0 0-78.769231c-86.646154-3.938462-137.846154-55.138462-153.6-145.723077l51.2-15.753846c11.815385 70.892308 43.323077 110.276923 106.338462 118.153846l0-192.984615c-98.461538-23.630769-141.784615-66.953846-137.846154-133.907692 3.938462-78.769231 47.261538-122.092308 137.846154-129.969231L488.369231 208.738462l39.384615 0 0 55.138462c78.769231 7.876923 126.030769 51.2 141.784615 129.969231l-51.2 15.753846c-11.815385-59.076923-39.384615-90.584615-90.584615-102.4l0 169.353846c106.338462 27.569231 157.538462 74.830769 153.6 145.723077C673.476923 708.923077 622.276923 752.246154 523.815385 764.061538z" p-id="6535" fill="#aaaaaa"></path></svg>