<?xml version="1.0" standalone="no"?><!DOCTYPE svg PUBLIC "-//W3C//DTD SVG 1.1//EN" "http://www.w3.org/Graphics/SVG/1.1/DTD/svg11.dtd"><svg t="1614958206815" class="icon" viewBox="0 0 1024 1024" version="1.1" xmlns="http://www.w3.org/2000/svg" p-id="5622" xmlns:xlink="http://www.w3.org/1999/xlink" width="200" height="200"><defs><style type="text/css"></style></defs><path d="M939.514228 613.762564a63.9996 63.9996 0 0 0 68.479572-63.9996s0-102.39936-101.119368-447.9972c0 0-31.359804-101.119368-69.759564-101.119368H426.877432C399.9976 0.0064 325.118068 19.20628 325.118068 72.965944v540.79662S527.9968 763.521628 527.9968 954.240436c5.759964 10.239936-10.239936 69.759564 63.9996 69.759564 0 0 178.558884-19.839876 72.959544-410.237436zM213.758764 613.762564a40.319748 40.319748 0 0 0 41.59974-41.59974V23.046256s0-23.039856-29.439816-23.039856H84.479572a33.919788 33.919788 0 0 0-34.559784 34.559784L16 580.482772a33.279792 33.279792 0 0 0 33.919788 33.279792z" p-id="5623" fill="#fb7299"></path></svg>