<?xml version="1.0" standalone="no"?><!DOCTYPE svg PUBLIC "-//W3C//DTD SVG 1.1//EN" "http://www.w3.org/Graphics/SVG/1.1/DTD/svg11.dtd"><svg t="1614087551621" class="icon" viewBox="0 0 1024 1024" version="1.1" xmlns="http://www.w3.org/2000/svg" p-id="2987" xmlns:xlink="http://www.w3.org/1999/xlink" width="200" height="200"><defs><style type="text/css"></style></defs><path d="M529.92 527.36L857.6 197.12c12.8-12.8 12.8-33.28 0-46.08s-33.28-12.8-46.08 0L483.84 481.28 153.6 151.04c-12.8-12.8-33.28-12.8-46.08 0s-12.8 33.28 0 46.08L435.2 527.36 107.52 857.6c-12.8 12.8-12.8 33.28 0 46.08 5.12 5.12 15.36 10.24 23.04 10.24s17.92-2.56 23.04-10.24l327.68-330.24 327.68 330.24c5.12 7.68 15.36 10.24 23.04 10.24 7.68 0 17.92-2.56 23.04-10.24 12.8-12.8 12.8-33.28 0-46.08L529.92 527.36z" fill="#aaaaaa" p-id="2988"></path></svg>