<?xml version="1.0" standalone="no"?><!DOCTYPE svg PUBLIC "-//W3C//DTD SVG 1.1//EN" "http://www.w3.org/Graphics/SVG/1.1/DTD/svg11.dtd"><svg t="1614088308788" class="icon" viewBox="0 0 1024 1024" version="1.1" xmlns="http://www.w3.org/2000/svg" p-id="7360" xmlns:xlink="http://www.w3.org/1999/xlink" width="200" height="200"><defs><style type="text/css"></style></defs><path d="M512.006144 0.001024C229.23144 0.001024 0.001536 229.230928 0.001536 511.999488c0 149.065281 63.700801 283.24267 165.366288 376.82063 0.149504 0.124928 0.293887 0.262143 0.444415 0.400383-63.970112-6.62526-106.002114 2.936823-140.51593 20.724674C11.020767 920.971573 8.302055 930.457881 9.370084 942.57074c3.687413 20.063172 17.619915 20.501442 30.68202 18.262985 12.14358-2.074618 106.871487-28.500906 234.123586 4.687858 71.064363 37.338 151.972408 58.475345 237.823287 58.475345 282.769584 0 511.998464-229.22888 511.998464-511.998464C1023.998464 229.230928 794.780848 0.001024 512.006144 0.001024zM703.054275 177.679851c78.451477 0 142.05295 63.601473 142.05295 142.040662 0 78.451477-63.600449 142.040662-142.05295 142.040662-78.440213 0-142.028374-63.589185-142.028374-142.040662C561.025901 241.281324 624.615086 177.679851 703.054275 177.679851zM330.895903 177.679851c78.445333 0 142.040662 63.601473 142.040662 142.040662 0 78.451477-63.594305 142.040662-142.040662 142.040662-78.445333 0-142.040662-63.589185-142.040662-142.040662C188.855241 241.281324 252.450571 177.679851 330.895903 177.679851zM331.020831 843.98134c-78.439189 0-142.034518-63.589185-142.034518-142.040662 0-78.439189 63.589185-142.040662 142.034518-142.040662 78.445333 0 142.040662 63.601473 142.040662 142.040662C473.061493 780.393179 409.467188 843.98134 331.020831 843.98134zM512 594.601224c-45.620087 0-82.601736-36.987793-82.601736-82.601736 0-45.626231 36.981649-82.601736 82.601736-82.601736 45.626231 0 82.601736 36.975505 82.601736 82.601736C594.601736 557.613431 557.626231 594.601224 512 594.601224zM703.179202 843.98134c-78.440213 0-142.028374-63.589185-142.028374-142.040662 0-78.439189 63.589185-142.040662 142.028374-142.040662 78.451477 0 142.05295 63.601473 142.05295 142.040662C845.232152 780.393179 781.631703 843.98134 703.179202 843.98134z" p-id="7361" fill="#fb7299"></path></svg>