<?xml version="1.0" standalone="no"?><!DOCTYPE svg PUBLIC "-//W3C//DTD SVG 1.1//EN" "http://www.w3.org/Graphics/SVG/1.1/DTD/svg11.dtd"><svg t="1614001659652" class="icon" viewBox="0 0 1024 1024" version="1.1" xmlns="http://www.w3.org/2000/svg" p-id="1873" xmlns:xlink="http://www.w3.org/1999/xlink" width="200" height="200"><defs><style type="text/css"></style></defs><path d="M115.2 928c44.8 57.6 137.6 60.8 204.8 9.6 28.8-22.4 48-48 57.6-76.8 6.4-12.8 9.6-28.8 9.6-48V368l492.8-76.8v233.6c0 83.2-64 102.4-86.4 105.6H784c-25.6 3.2-54.4 16-76.8 35.2-70.4 51.2-89.6 140.8-44.8 198.4s137.6 60.8 204.8 9.6c35.2-25.6 57.6-64 64-99.2 3.2-9.6 3.2-19.2 3.2-28.8V96c0-32-25.6-51.2-60.8-41.6L390.4 131.2c-32 9.6-60.8 44.8-60.8 76.8v380.8c0 83.2-64 102.4-86.4 105.6H233.6c-25.6 6.4-54.4 16-76.8 35.2-64 51.2-83.2 140.8-41.6 198.4z" fill="#FC6F9A" p-id="1874"></path></svg>