<?xml version="1.0" standalone="no"?><!DOCTYPE svg PUBLIC "-//W3C//DTD SVG 1.1//EN" "http://www.w3.org/Graphics/SVG/1.1/DTD/svg11.dtd"><svg t="1612531584205" class="icon" viewBox="0 0 1024 1024" version="1.1" xmlns="http://www.w3.org/2000/svg" p-id="2155" xmlns:xlink="http://www.w3.org/1999/xlink" width="200" height="200"><defs><style type="text/css"></style></defs><path d="M511.992837 372.796588c-30.993898 0-56.129368 25.128307-56.129368 56.129368 0 30.993898 25.13547 56.129368 56.129368 56.129368 31.007201 0 56.129368-25.13547 56.129368-56.129368C568.122205 397.924895 543.001061 372.796588 511.992837 372.796588z" p-id="2156" fill="#ffffff"></path><path d="M287.47741 372.796588c-30.993898 0-56.129368 25.128307-56.129368 56.129368 0 30.993898 25.13547 56.129368 56.129368 56.129368 31.007201 0 56.129368-25.13547 56.129368-56.129368C343.605755 397.924895 318.484611 372.796588 287.47741 372.796588z" p-id="2157" fill="#ffffff"></path><path d="M848.768023 148.280138 175.218674 148.280138c-61.993936 0-112.257713 50.257637-112.257713 112.257713l0 336.768023c0 62.001099 50.263777 112.264876 112.257713 112.264876l209.637578 0L511.338944 878.102119l126.47553-168.531368 210.953549 0c62.001099 0 112.264876-50.263777 112.264876-112.264876L961.0329 260.537851C961.0329 198.536752 910.769123 148.280138 848.768023 148.280138zM904.903531 597.313038c0 30.996968-25.13547 56.129368-56.135508 56.129368l-253.073856 0-84.3542 112.401999-84.358293-112.401999L175.218674 653.442406c-30.993898 0-56.129368-25.1324-56.129368-56.129368L119.089305 260.537851c0-31.000038 25.13547-56.129368 56.129368-56.129368l673.548326 0c31.000038 0 56.135508 25.128307 56.135508 56.129368L904.902508 597.313038z" p-id="2158" fill="#ffffff"></path><path d="M736.509287 372.796588c-30.993898 0-56.129368 25.128307-56.129368 56.129368 0 30.993898 25.13547 56.129368 56.129368 56.129368 31.007201 0 56.129368-25.13547 56.129368-56.129368C792.638655 397.924895 767.516488 372.796588 736.509287 372.796588z" p-id="2159" fill="#ffffff"></path></svg>