<?xml version="1.0" standalone="no"?><!DOCTYPE svg PUBLIC "-//W3C//DTD SVG 1.1//EN" "http://www.w3.org/Graphics/SVG/1.1/DTD/svg11.dtd"><svg t="1614520564393" class="icon" viewBox="0 0 1238 1024" version="1.1" xmlns="http://www.w3.org/2000/svg" p-id="2828" xmlns:xlink="http://www.w3.org/1999/xlink" width="241.796875" height="200"><defs><style type="text/css"></style></defs><path d="M104.044733 811.3689v48.306483A1400.47513 1400.47513 0 0 1 619.313884 767.604052c30.552818 0 60.692761 0 90.006951 2.477256v-349.293031H825.751845L440.53861 12.453989a38.810337 38.810337 0 0 0-56.976878 0L0 420.788277h104.044733zM330.300738 429.458671h90.006951v95.787214H330.300738z m0 127.991536h90.006951v95.787214H330.300738z m-119.734017-127.991536h90.006951v95.787214H210.566721z m0 127.991536h90.006951v95.787214H210.566721zM743.176661 846.876229a228.320385 228.320385 0 0 0-95.787214 177.123771H825.751845a263.414839 263.414839 0 0 1 62.344265-154.002719 1254.317053 1254.317053 0 0 0-144.919449-23.121052zM946.724491 885.686566a220.475743 220.475743 0 0 0-67.711652 138.313434H1238.627768a861.672051 861.672051 0 0 0-291.903277-138.313434zM345.990023 870.823033l2.890132 4.954511c-94.13571 55.73825-113.953755 114.366631-116.431011 148.222456h153.589844a270.846605 270.846605 0 0 1 80.097929-174.233639c-42.939096 5.367387-82.98806 12.799154-120.146894 21.056672zM177.123771 1024a198.593319 198.593319 0 0 1 49.132235-117.669638 784.464253 784.464253 0 0 0-222.952999 117.669638zM619.313884 842.334594h-58.628381a247.725554 247.725554 0 0 0-118.082514 181.665406h149.048208a267.543598 267.543598 0 0 1 74.730542-181.665406H619.313884z" fill="#5ABF66" p-id="2829"></path><path d="M784.464253 479.416658v241.532415a103.218981 103.218981 0 0 1 41.287592-11.14765 191.987304 191.987304 0 0 1 41.287593 8.670394c0 21.882424 0 49.545111 2.064379 71.427535 22.2953 3.715883 44.5906 7.844643 66.060148 12.799153v-31.791446a196.941815 196.941815 0 0 1 5.780263-52.435242c54.499622-11.14765 44.177724-26.424059 68.124527-33.855825 38.397461-11.973402 61.105637 20.23092 111.889375-18.166541a137.900558 137.900558 0 0 0 52.022366-126.752908c-13.624905-53.67387-49.545111-69.776031-52.022366-104.044733s34.268702-47.480731 16.927913-99.915973c-21.469548-67.298775-54.086746-51.196614-59.041257-58.628381a129.230164 129.230164 0 0 0-16.102161-80.510805c-20.643796-41.287592-34.268702-29.727066-47.893607-44.5906s-3.715883-22.708176-18.166541-32.204322c-21.056672-14.450657-15.276409 3.303007-49.54511-7.431766s-47.893607-35.507329-77.207798-24.772556c-67.711651 24.359679-45.829227 72.253286-59.454133 87.11682s-35.920205 11.973402-48.306483 26.011183a128.404412 128.404412 0 0 0-20.23092 41.287592l213.456852 237.403656z" fill="#5ABF66" p-id="2830"></path></svg>