<?xml version="1.0" standalone="no"?><!DOCTYPE svg PUBLIC "-//W3C//DTD SVG 1.1//EN" "http://www.w3.org/Graphics/SVG/1.1/DTD/svg11.dtd"><svg t="1614253727908" class="icon" viewBox="0 0 1152 1024" version="1.1" xmlns="http://www.w3.org/2000/svg" p-id="1903" xmlns:xlink="http://www.w3.org/1999/xlink" width="225" height="200"><defs><style type="text/css"></style></defs><path d="M760.310021 150.603463L855.348774 61.452633a35.007541 35.007541 0 0 0 0-50.559336 38.015501 38.015501 0 0 0-27.647638-10.879857 42.239446 42.239446 0 0 0-27.647637 10.879857l-148.926045 139.710166H505.721362L356.731318 10.829298A38.015501 38.015501 0 0 0 329.14768 0.01344a42.239446 42.239446 0 0 0-27.647637 10.879857 35.007541 35.007541 0 0 0 0 50.559336l94.910754 89.15083H147.646062C51.519324 150.603463 0 199.242825 0 307.657402v499.06545c0 108.414577 51.519324 157.053939 147.646062 157.053938h79.358959c0 32.511573 28.799622 60.22321 63.679164 60.22321 34.815543 0 63.679164-26.495652 63.679164-60.22321h447.99412c0 32.511573 28.863621 60.22321 63.743163 60.22321 34.815543 0 63.615165-26.495652 63.615165-60.22321h74.623021c96.062739 0 147.646062-62.527179 147.646062-169.789771v-473.593784c1.151985-108.478576-50.367339-169.789772-146.430078-169.789772H760.310021z m52.927305 440.954213L467.193868 793.859021c-28.799622 16.831779-52.863306 3.583953-52.863306-31.359589V356.616759c0-33.727557 24.063684-48.191367 52.863306-31.359588l345.979459 203.645327c28.799622 18.047763 28.799622 44.543415 0 62.591179z" fill="#f4ea2a" p-id="1904"></path></svg>