<?xml version="1.0" standalone="no"?><!DOCTYPE svg PUBLIC "-//W3C//DTD SVG 1.1//EN" "http://www.w3.org/Graphics/SVG/1.1/DTD/svg11.dtd"><svg t="1614001475498" class="icon" viewBox="0 0 1024 1024" version="1.1" xmlns="http://www.w3.org/2000/svg" p-id="1734" xmlns:xlink="http://www.w3.org/1999/xlink" width="200" height="200"><defs><style type="text/css"></style></defs><path d="M913.4 895.6H110.6C86.6 895.6 67 876 67 852V299.4c0-24 19.5-43.5 43.5-43.5h802.8c24 0 43.5 19.5 43.5 43.5V852c0.2 24-19.4 43.6-43.4 43.6z m-766.4-80h730V335.8H147v479.8z" p-id="1735" fill="#ebac11"></path><path d="M358.7 740.8c-91.1 0-165.1-74.1-165.1-165.1 0-91.1 74.1-165.1 165.1-165.1s165.1 74.1 165.1 165.1c0.1 91-74 165.1-165.1 165.1z m0-250.3c-46.9 0-85.1 38.2-85.1 85.1 0 46.9 38.2 85.1 85.1 85.1s85.1-38.2 85.1-85.1c0.1-46.9-38.1-85.1-85.1-85.1zM787.6 529H603.4c-22.1 0-40-17.9-40-40s17.9-40 40-40h184.2c22.1 0 40 17.9 40 40s-17.9 40-40 40zM787.6 702.4H603.4c-22.1 0-40-17.9-40-40s17.9-40 40-40h184.2c22.1 0 40 17.9 40 40s-17.9 40-40 40zM127.5 336.6c-15 0-29.3-8.4-36.2-22.9-9.5-20-0.9-43.8 19-53.3l271.1-128.5c20-9.5 43.8-1 53.3 19s0.9 43.8-19 53.3L144.6 332.7c-5.5 2.6-11.3 3.9-17.1 3.9z" p-id="1736" fill="#ebac11"></path></svg>