<?xml version="1.0" standalone="no"?><!DOCTYPE svg PUBLIC "-//W3C//DTD SVG 1.1//EN" "http://www.w3.org/Graphics/SVG/1.1/DTD/svg11.dtd"><svg t="1614958127306" class="icon" viewBox="0 0 1024 1024" version="1.1" xmlns="http://www.w3.org/2000/svg" p-id="4928" xmlns:xlink="http://www.w3.org/1999/xlink" width="200" height="200"><defs><style type="text/css"></style></defs><path d="M1022.272 482.048l-90.88 346.304a67.168 67.168 0 0 1-65.472 52.224H312.192V400H480.64c76.16 0 137.856-114.56 137.856-190.72 0-43.456 35.2-78.656 78.656-78.656h6.464c43.456 0 78.656 35.2 78.656 78.656v190.72h174.592c43.072 0 75.008 40 65.408 82.048zM249.6 883.2H118.848c-19.712 0-35.648-15.936-35.648-35.648V438.848c0-19.712 15.936-35.648 35.648-35.648H249.6v480z" fill="#fb7299" p-id="4929"></path></svg>