<?xml version="1.0" standalone="no"?><!DOCTYPE svg PUBLIC "-//W3C//DTD SVG 1.1//EN" "http://www.w3.org/Graphics/SVG/1.1/DTD/svg11.dtd"><svg t="1614086591314" class="icon" viewBox="0 0 1024 1024" version="1.1" xmlns="http://www.w3.org/2000/svg" p-id="2143" xmlns:xlink="http://www.w3.org/1999/xlink" width="200" height="200"><defs><style type="text/css"></style></defs><path d="M512 962c-52.49970703 0-93.75029297-41.24970703-93.75029297-93.75029297S459.50029297 774.50029297 512 774.50029297 605.75029297 815.75 605.75029297 868.24970703 564.49970703 962 512 962z m0-712.50029297c-52.49970703 0-93.75029297-41.24970703-93.75029297-93.74941406S459.50029297 62 512 62s93.75029297 41.24970703 93.75029297 93.75029297S564.49970703 249.49970703 512 249.49970703z m0 356.25058594c-52.49970703 0-93.75029297-41.25058594-93.75029297-93.75029297S459.50029297 418.24970703 512 418.24970703 605.75029297 459.50029297 605.75029297 512 564.49970703 605.75029297 512 605.75029297z" fill="#aaaaaa" p-id="2144"></path></svg>