<?xml version="1.0" standalone="no"?><!DOCTYPE svg PUBLIC "-//W3C//DTD SVG 1.1//EN" "http://www.w3.org/Graphics/SVG/1.1/DTD/svg11.dtd"><svg t="1615815085795" class="icon" viewBox="0 0 1024 1024" version="1.1" xmlns="http://www.w3.org/2000/svg" p-id="9965" xmlns:xlink="http://www.w3.org/1999/xlink" width="200" height="200"><defs><style type="text/css"></style></defs><path d="M917.91 98.85h-812a40.35 40.35 0 0 0-40.3 40.3v655.09a40.35 40.35 0 0 0 40.3 40.3h302.81l103.24 93 106.89-93h299.06a40.35 40.35 0 0 0 40.3-40.3V139.15a40.35 40.35 0 0 0-40.3-40.3z m-16.3 679.09H597.68l-85.07 74-82.16-74H122.21V155.45h779.4z" p-id="9966" fill="#fb7299"></path><path d="M190.89 275.33h642.05v56.6H190.89zM190.89 439.91h448.09v56.6H190.89zM190.89 599.71h253.42v56.6H190.89z" p-id="9967" fill="#fb7299"></path></svg>