<?xml version="1.0" standalone="no"?><!DOCTYPE svg PUBLIC "-//W3C//DTD SVG 1.1//EN" "http://www.w3.org/Graphics/SVG/1.1/DTD/svg11.dtd"><svg t="1614520616329" class="icon" viewBox="0 0 1024 1024" version="1.1" xmlns="http://www.w3.org/2000/svg" p-id="3782" xmlns:xlink="http://www.w3.org/1999/xlink" width="200" height="200"><defs><style type="text/css"></style></defs><path d="M512 77.710105C271.958607 77.710105 77.368321 272.300391 77.368321 512.341783c0 240.040176 194.590286 434.631679 434.631679 434.631679s434.631679-194.591502 434.631679-434.631679C946.631679 272.300391 752.041393 77.710105 512 77.710105L512 77.710105zM667.934709 800.630581 348.481593 800.630581l0-29.870164 319.453116 0L667.934709 800.630581 667.934709 800.630581zM387.3184 380.985069l0-29.87138 248.755044 0 0 29.87138L387.3184 380.985069 387.3184 380.985069zM634.999442 409.022252l0 332.39953-29.87138 0L605.128062 409.022252 634.999442 409.022252 634.999442 409.022252zM557.901141 409.022252l0 332.39953-29.870164 0L528.030978 409.022252 557.901141 409.022252 557.901141 409.022252zM489.650287 409.022252l0 332.39953-29.87138 0L459.778907 409.022252 489.650287 409.022252 489.650287 409.022252zM417.61184 409.022252l0 332.39953-29.870164 0L387.741676 409.022252 417.61184 409.022252 417.61184 409.022252zM817.379183 464.320612 669.584026 464.320612l0-121.212681 88.661768 0 0 62.084158L728.374415 405.192089l0-32.212778-28.920225 0 0 61.471138 88.054829 0 0-120.604526L238.486947 313.845923l0 119.6108 87.32261 0 0-61.319099-28.346126 0 0 32.209129L267.593268 404.346753l0-62.079293 88.086453 0 0 121.060642L208.615567 463.328102 208.615567 283.974543l608.763615 0L817.379183 464.320612 817.379183 464.320612zM817.379183 425.398663" p-id="3783" fill="#1296db"></path></svg>