<?xml version="1.0" standalone="no"?><!DOCTYPE svg PUBLIC "-//W3C//DTD SVG 1.1//EN" "http://www.w3.org/Graphics/SVG/1.1/DTD/svg11.dtd"><svg t="1612625678441" class="icon" viewBox="0 0 1024 1024" version="1.1" xmlns="http://www.w3.org/2000/svg" p-id="6233" xmlns:xlink="http://www.w3.org/1999/xlink" width="200" height="200"><defs><style type="text/css"></style></defs><path d="M844.3 528.3c-18.8 0-34 15.2-34 34v221.1c0 37.5-30.5 68-68 68H232.1c-37.5 0-68-30.5-68-68V273.2c0-37.5 30.5-68 68-68h221.1c18.8 0 34-15.2 34-34s-15.2-34-34-34H232.1c-75 0-136.1 61-136.1 136.1v510.2c0 75 61 136.1 136.1 136.1h510.2c75 0 136.1-61 136.1-136.1V562.3c0-18.8-15.3-34-34.1-34z" p-id="6234" fill="#fb7299"></path><path d="M917.3 277.5L743.6 113.8c-13.7-12.9-35.2-12.2-48.1 1.4-12.9 13.7-12.3 35.2 1.4 48.1l112.9 106.4c-30.1 1.9-60.9 3.5-93 3.5-257.9 0-467.7 179.3-467.7 399.7 0 18.8 15.2 34 34 34s34-15.2 34-34c0-182.9 179.3-331.6 399.7-331.6 33.9 0 66-1.6 97.1-3.6L705.5 452.6c-12.9 13.7-12.3 35.2 1.4 48.1 6.6 6.2 15 9.3 23.3 9.3 9 0 18.1-3.6 24.7-10.7l163.7-173.7c13-13.7 12.4-35.2-1.3-48.1z" p-id="6235" fill="#fb7299"></path></svg>