<?xml version="1.0" standalone="no"?><!DOCTYPE svg PUBLIC "-//W3C//DTD SVG 1.1//EN" "http://www.w3.org/Graphics/SVG/1.1/DTD/svg11.dtd"><svg t="1614520486378" class="icon" viewBox="0 0 1024 1024" version="1.1" xmlns="http://www.w3.org/2000/svg" p-id="2120" xmlns:xlink="http://www.w3.org/1999/xlink" width="200" height="200"><defs><style type="text/css"></style></defs><path d="M219.36355555 932.52266667H1.47911111v-22.75555556h195.12888889V645.91644445H1.47911111v-22.75555556h217.88444444z" fill="#d81e06" p-id="2121"></path><path d="M126.74844445 636.70044445h22.75555555v284.55822222h-22.75555555zM509.83822222 892.35911111c-15.36 0-30.83377778-5.91644445-42.55288889-17.63555556l-87.83644444-87.83644444 16.04266666-16.04266666 87.83644445 87.83644444c14.56355555 14.56355555 38.22933333 14.56355555 52.79288889 0 14.56355555-14.56355555 14.56355555-38.22933333 0-52.79288889L401.63555555 671.28888889l-193.76355555-0.68266667 0.11377778-22.75555555 203.20711111 0.68266666 141.19822222 141.19822222c23.43822222 23.43822222 23.43822222 61.55377778 0 84.992-11.83288889 11.83288889-27.19288889 17.63555555-42.55288889 17.63555556z" fill="#d81e06" p-id="2122"></path><path d="M487.53777778 1013.64622222c-5.91644445 0-11.83288889-1.13777778-17.52177778-3.29955555-22.98311111-8.98844445-58.70933333-28.33066667-96.48355555-48.92444445-34.816-18.88711111-70.76977778-38.45688889-97.8488889-50.40355555h-67.69777777v-22.75555556h72.47644444l2.16177778 0.91022222c28.21688889 12.17422222 65.64977778 32.54044445 101.83111111 52.224 37.20533333 20.25244445 72.24888889 39.25333333 93.86666667 47.67288889 7.28177778 2.84444445 15.24622222 2.16177778 21.95911111-1.82044444L863.34577778 774.82666667l2.16177777-1.25155556c1.93422222-1.13777778 3.64088889-2.16177778 5.57511112-3.29955556 19.56977778-12.06044445 26.73777778-21.84533333 24.68977778-33.90577777-1.36533333-7.85066667-5.68888889-14.67733333-12.288-19.34222223-6.59911111-4.66488889-14.44977778-6.48533333-22.30044445-5.12l-353.84888889 58.368-3.75466666-22.41422222 353.84888888-58.368c13.76711111-2.38933333 27.76177778 0.79644445 39.25333334 8.98844445 11.49155555 8.192 19.11466667 20.25244445 21.504 34.13333333 5.46133333 32.08533333-24.12088889 50.28977778-35.27111112 57.11644444-2.16177778 1.25155555-3.98222222 2.38933333-6.03022222 3.52711112l-2.048 1.25155555-363.06488888 212.53688889c-7.50933333 4.32355555-15.81511111 6.59911111-24.23466667 6.59911111zM772.32355555 608.256l-21.27644444-7.96444445c4.096-10.69511111 7.39555555-21.84533333 9.89866667-32.99555555l22.18666667 5.00622222c-2.84444445 12.17422222-6.37155555 24.23466667-10.8088889 35.95377778zM788.70755555 536.23466667l-22.64177777-1.93422222c0.68266667-7.28177778 0.91022222-14.67733333 0.91022222-21.95911112 0-4.32355555-0.11377778-8.76088889-0.34133333-13.08444444l22.75555555-1.13777778c0.22755555 4.77866667 0.34133333 9.55733333 0.34133333 14.336 0 7.85066667-0.34133333 15.81511111-1.024 23.77955556zM762.88 466.944c-1.13777778-6.48533333-2.61688889-12.97066667-4.32355555-19.34222222-1.36533333-4.89244445-2.84444445-9.89866667-4.43733334-14.79111111l21.61777778-7.28177778c1.82044445 5.34755555 3.41333333 10.69511111 4.89244444 16.15644444 1.82044445 6.94044445 3.41333333 13.99466667 4.77866667 21.04888889l-22.528 4.20977778zM280.12088889 408.34844445l-20.70755556-9.44355556c5.34755555-11.60533333 11.49155555-22.86933333 18.432-33.67822222l19.11466667 12.288c-6.25777778 9.89866667-11.94666667 20.25244445-16.83911111 30.83377778zM260.55111111 473.65688889l-22.528-3.52711111c1.13777778-7.05422222 2.50311111-14.22222222 4.096-21.16266667 1.47911111-6.25777778 3.29955555-12.62933333 5.23377778-18.77333333l21.73155556 6.82666667c-1.82044445 5.68888889-3.41333333 11.37777778-4.77866667 17.18044444-1.47911111 6.48533333-2.84444445 12.97066667-3.75466667 19.456zM236.20266667 540.672c-0.79644445-7.85066667-1.25155555-15.92888889-1.47911112-23.89333333v-4.43733334c0-3.52711111 0.11377778-7.168 0.22755556-10.69511111l22.75555556 0.91022223c-0.11377778 3.29955555-0.22755555 6.59911111-0.22755556 9.78488888v4.096c0.11377778 7.28177778 0.56888889 14.67733333 1.25155556 21.95911112l-22.528 2.27555555zM252.58666667 609.39377778c-3.072-7.62311111-4.096-11.264-6.37155556-18.65955556l-0.68266666-2.38933333c-1.47911111-5.12-2.84444445-10.35377778-3.98222223-15.47377778l22.18666667-5.00622222c1.024 4.77866667 2.27555555 9.55733333 3.64088889 14.22222222 0.22755555 0.79644445 0.45511111 1.47911111 0.68266667 2.16177778 2.16177778 7.39555555 3.072 10.12622222 5.68888888 16.72533333l-21.16266666 8.41955556zM738.19022222 671.744l-18.432-13.312c6.48533333-8.98844445 12.51555555-18.65955555 17.74933333-28.44444445l20.0248889 10.69511112c-5.68888889 10.69511111-12.17422222 21.16266667-19.34222223 31.06133333zM1020.928 408.80355555H803.15733333v-309.47555555h217.77066667v22.75555555H825.91288889v263.96444445h195.01511111z" fill="#d81e06" p-id="2123"></path><path d="M873.01688889 110.70577778h22.75555556v284.55822222h-22.75555556zM814.53511111 384l-203.20711111-0.68266667-141.19822222-141.19822222c-11.264-11.264-17.52177778-26.39644445-17.52177778-42.55288889 0-16.04266667 6.25777778-31.17511111 17.52177778-42.55288889 23.43822222-23.43822222 61.55377778-23.43822222 84.992 0l87.83644444 87.83644445-16.04266667 16.15644444-87.83644444-87.83644444c-14.56355555-14.56355555-38.22933333-14.56355555-52.79288889 0-14.56355555 14.56355555-14.56355555 38.22933333 0 52.79288889l134.59911111 134.59911111 193.76355556 0.68266667-0.11377778 22.75555555z" fill="#d81e06" p-id="2124"></path><path d="M156.10311111 343.15377778c-10.80888889 0-21.27644445-3.29955555-30.37866666-9.78488889-11.49155555-8.192-19.11466667-20.25244445-21.504-34.13333334-5.46133333-32.08533333 24.12088889-50.28977778 35.2711111-57.11644444 2.048-1.25155555 3.98222222-2.38933333 6.03022223-3.52711111l2.16177777-1.25155555 362.95111112-212.42311112c12.74311111-7.50933333 27.98933333-8.64711111 41.75644444-3.29955555 22.98311111 8.98844445 58.70933333 28.33066667 96.48355556 48.92444444 34.816 18.88711111 70.76977778 38.45688889 97.84888888 50.40355556h67.69777778v22.75555555h-72.47644444l-2.16177778-0.91022222c-28.21688889-12.17422222-65.64977778-32.54044445-101.83111111-52.224-37.20533333-20.25244445-72.24888889-39.25333333-93.86666667-47.67288889-7.28177778-2.84444445-15.24622222-2.16177778-21.95911111 1.82044445l-362.95111111 212.30933333-2.16177778 1.25155555c-1.93422222 1.13777778-3.64088889 2.16177778-5.57511111 3.29955556-19.56977778 12.06044445-26.73777778 21.84533333-24.68977777 33.90577778 1.36533333 7.85066667 5.68888889 14.67733333 12.288 19.34222222 6.59911111 4.66488889 14.44977778 6.48533333 22.30044444 5.12l353.84888889-58.368 3.75466667 22.41422222L164.97777778 342.35733333c-2.95822222 0.56888889-5.91644445 0.79644445-8.87466667 0.79644445zM509.04177778 643.29955555l-103.53777778-103.65155555c-27.648-27.648-27.648-72.704 0-100.352 27.648-27.648 72.704-27.648 100.352 0l19.68355555 19.68355555-16.04266666 16.04266667-19.68355556-19.68355555c-18.77333333-18.77333333-49.37955555-18.77333333-68.15288888 0s-18.77333333 49.37955555 0 68.15288888l103.53777777 103.65155556-16.15644444 16.15644444z" fill="#d81e06" p-id="2125"></path><path d="M508.928 643.29955555l-16.04266667-16.15644444 104.33422222-103.65155556c18.77333333-18.77333333 18.77333333-49.37955555 0-68.15288888s-49.37955555-18.77333333-68.15288888 0l-19.68355556 19.68355555-16.04266666-16.04266667 19.68355555-19.68355555c27.648-27.648 72.704-27.648 100.352 0 27.648 27.648 27.648 72.704 0 100.352l-104.448 103.65155555zM359.424 665.71377778c-40.61866667-40.61866667-63.03288889-94.66311111-63.03288889-152.23466667 0-118.67022222 96.59733333-215.26755555 215.26755556-215.26755556 16.384 0 32.65422222 1.82044445 48.35555555 5.46133334l-5.12 22.18666666c-14.10844445-3.29955555-28.672-4.89244445-43.34933333-4.89244444-106.15466667 0-192.512 86.35733333-192.512 192.512 0 51.42755555 20.02488889 99.78311111 56.43377778 136.07822222l-16.04266667 16.15644445z" fill="#d81e06" p-id="2126"></path><path d="M511.65866667 728.74666667c-19.456 0-38.68444445-2.61688889-57.23022222-7.73688889l6.03022222-21.95911111c16.61155555 4.55111111 33.792 6.82666667 51.2 6.82666666 106.15466667 0 192.512-86.35733333 192.512-192.512 0-50.40355555-19.34222222-97.96266667-54.38577778-134.144l16.27022222-15.81511111c39.25333333 40.39111111 60.75733333 93.63911111 60.75733334 149.95911111 0.11377778 118.784-96.48355555 215.38133333-215.15377778 215.38133334z" fill="#d81e06" p-id="2127"></path></svg>