<?xml version="1.0" standalone="no"?><!DOCTYPE svg PUBLIC "-//W3C//DTD SVG 1.1//EN" "http://www.w3.org/Graphics/SVG/1.1/DTD/svg11.dtd"><svg t="1615814903592" class="icon" viewBox="0 0 1024 1024" version="1.1" xmlns="http://www.w3.org/2000/svg" p-id="5914" xmlns:xlink="http://www.w3.org/1999/xlink" width="200" height="200"><defs><style type="text/css"></style></defs><path d="M998.912 238.08l-183.808-127.488a38.4 38.4 0 0 0-22.016-8.192h-151.04a38.4 38.4 0 0 0-38.4 34.304 89.6 89.6 0 0 1-57.856 42.496 89.6 89.6 0 0 1-68.096 0 89.6 89.6 0 0 1-57.856-40.96 38.4 38.4 0 0 0-37.888-35.84H230.912a38.4 38.4 0 0 0-22.016 6.656L25.088 238.08a38.4 38.4 0 0 0-12.8 47.616L109.056 496.64a38.4 38.4 0 0 0 48.128 19.968l32.768-11.776-44.544 403.456a38.4 38.4 0 0 0 38.4 42.496h656.384a38.4 38.4 0 0 0 38.4-42.496l-44.544-403.968 32.768 11.776a38.4 38.4 0 0 0 48.128-19.968l97.28-210.944a38.4 38.4 0 0 0-13.312-47.104z m-139.264 194.048L802.304 409.6a38.4 38.4 0 0 0-51.2 40.448l46.592 422.4H226.816l46.592-420.864a38.4 38.4 0 0 0-51.2-40.448l-57.856 20.992-69.12-149.504 147.456-102.4h112.128a182.784 182.784 0 0 0 93.696 71.168 166.912 166.912 0 0 0 126.976 0 182.784 182.784 0 0 0 93.696-71.168h111.616l147.456 102.4z" fill="#fb7299" p-id="5915"></path></svg>