<?xml version="1.0" standalone="no"?><!DOCTYPE svg PUBLIC "-//W3C//DTD SVG 1.1//EN" "http://www.w3.org/Graphics/SVG/1.1/DTD/svg11.dtd"><svg t="1614088276026" class="icon" viewBox="0 0 1024 1024" version="1.1" xmlns="http://www.w3.org/2000/svg" p-id="6267" xmlns:xlink="http://www.w3.org/1999/xlink" width="200" height="200"><defs><style type="text/css"></style></defs><path d="M236.09856 960.30208l-25.00096-146.69824-146.69824-25.00096 265.00096-265.00096 171.6992 171.60192-265.00096 265.09824z" fill="#FCCA4C" p-id="6268"></path><path d="M209.69984 805.80096l-138.90048-23.70048-6.4 6.5024 146.69824 25.00096-1.39776-7.80288z m282.30144-119.70048l-258.60096 258.60096 2.60096 15.60064 265.09824-265.09824-9.09824-9.10336z" fill="#FDDA82" p-id="6269"></path><path d="M787.99872 960.30208l25.00096-146.69824 146.60096-25.00096-265.00096-265.00096-171.6992 171.60192 265.09824 265.09824z" fill="#FCCA4C" p-id="6270"></path><path d="M323.99872 530.0992L198.4 655.69792l13.59872 34.49856a98.14528 98.14528 0 0 0 52.1984 53.89824l131.99872 57.20064 99.39968-99.39968-171.5968-171.79648z m374.4-2.60096l125.59872 125.59872-13.59872 34.49856a98.14528 98.14528 0 0 1-52.1984 53.89824l-131.99872 57.20064-99.39968-99.39968 171.5968-171.79648z" fill="#F99403" p-id="6271"></path><path d="M668.29824 678.00064l-138.90048 23.70048-6.5024-6.5024 146.69824-25.00096-1.29536 7.80288z m275.80416 113.30048l-252.20096-252.20096 2.69824-15.49824 265.00096 265.00096-15.49824 2.69824z" fill="#FDDA82" p-id="6272"></path><path d="M877.19936 408.00256l-78.19776-197.80096a98.14528 98.14528 0 0 0-52.1984-53.89824l-195.0976-84.50048a97.9456 97.9456 0 0 0-74.99776-1.19808L278.90176 148.80256a98.14528 98.14528 0 0 0-53.89824 52.1984L140.49792 396.09856a97.9456 97.9456 0 0 0-1.19808 74.99776l78.19776 197.80096a98.14528 98.14528 0 0 0 52.1984 53.89824l195.0976 84.50048a97.9456 97.9456 0 0 0 74.99776 1.19808l197.80096-78.19776a98.14528 98.14528 0 0 0 53.89824-52.1984l84.50048-195.2a98.11456 98.11456 0 0 0 1.20832-74.89536z" fill="#6AD4D9" p-id="6273"></path><path d="M218.5984 439.5008c0 159.93856 129.65888 289.60256 289.60256 289.60256 159.93856 0 289.60256-129.65888 289.60256-289.60256s-129.65888-289.60256-289.60256-289.60256S218.5984 279.55712 218.5984 439.5008z" fill="#E7F5FD" p-id="6274"></path><path d="M508.09856 150.00064c2.00192 0 3.90144 0 5.89824 0.1024C356.80256 153.29792 230.4 281.6 230.4 439.59808s126.40256 286.30016 283.60192 289.39776c-2.00192 0-3.90144 0.1024-5.89824 0.1024-159.8976 0-289.60256-129.60256-289.60256-289.60256s129.59744-289.49504 289.59744-289.49504z" fill="#BCDBF5" p-id="6275"></path><path d="M508.29824 150.00064c-2.00192 0-3.90144 0-5.89824 0.1024 157.10208 3.0976 283.60192 131.49696 283.60192 289.39776s-126.49984 286.40256-283.6992 289.50016c2.00192 0 3.90144 0.1024 5.89824 0.1024 159.8976 0 289.60256-129.60256 289.60256-289.60256s-129.60256-289.50016-289.50528-289.50016z" fill="#FAFDFF" p-id="6276"></path><path d="M252.40064 439.5008c-0.03584 141.27616 114.46272 255.83104 255.73888 255.86176 141.27104 0.04096 255.82592-114.4576 255.86176-255.73376v-0.12288c0-141.27616-114.52416-255.80032-255.80032-255.80032S252.40064 298.22464 252.40064 439.5008z" fill="#6AD4D9" p-id="6277"></path><path d="M609.39776 583.5008l-98.89792-49.89952-97.1008 53.20192v-13.30176l16.79872-96.1024-80.49664-75.89888V388.1984l109.19936-4.50048 47.29856-100.10112 50.69824 98.40128 109.7984 0.70144v13.39904L588.8 474.7008l20.59776 95.40096v13.39904z" fill="#0ECCBE" p-id="6278"></path><path d="M609.39776 570.10176l-98.89792-49.80224-97.1008 53.20192 16.79872-109.39904L349.70112 388.1984l109.19936-17.80224 47.29856-100.10112 50.69824 98.40128 109.7984 13.99808L588.8 461.30176l20.59776 108.8z" fill="#FFF9F0" p-id="6279"></path><path d="M506.19904 270.30016l34.40128 106.50112 91.6992 13.7984-53.00224 69.00224 30.10048 110.49984L588.8 461.30176l77.9008-78.60224-109.7984-13.99808-50.70336-98.40128z" fill="#E8FCFB" p-id="6280"></path><path d="M758.70208 189.10208s41.99936 61.19936 65.39776 111.69792c23.5008 50.49856 37.49888 115.79904 41.00096 128.9984s21.2992 2.60096 13.99808-16.30208-75.10016-190.30016-75.10016-190.30016-7.90016-32.30208-34.69824-48.90112c-15.49824-9.79456-10.5984 14.80704-10.5984 14.80704zM524.8 88.20224s56.69888 14.80192 101.20192 30.8992c44.60032 16.1024 93.19936 46.40256 103.3984 52.1984s13.50144-10.99776-2.40128-17.89952-160.59904-68.50048-160.59904-68.50048-15.8976-15.69792-41.20064-9.79968c-14.59712 3.3024-0.39936 13.10208-0.39936 13.10208z m321.80224 400.9984s-16 52.39808-34.49856 97.19808c-18.49856 44.9024-52.70016 90.19904-59.20256 99.90144s11.60192 18.0992 19.50208 2.40128 78.19776-158.69952 78.19776-158.69952 11.6992-24.69888 10.50112-52.80256c-0.80384-17.59744-14.49984 12.00128-14.49984 12.00128z" fill="#9FF4EF" p-id="6281"></path><path d="M812.99968 813.59872l-8.6016 2.0992-25.20064 135.79776 8.80128 8.80128 25.00096-146.69824z" fill="#FFFFFF" p-id="6282"></path></svg>