<?xml version="1.0" standalone="no"?><!DOCTYPE svg PUBLIC "-//W3C//DTD SVG 1.1//EN" "http://www.w3.org/Graphics/SVG/1.1/DTD/svg11.dtd"><svg t="1614342797082" class="icon" viewBox="0 0 1476 1024" version="1.1" xmlns="http://www.w3.org/2000/svg" p-id="3007" xmlns:xlink="http://www.w3.org/1999/xlink" width="288.28125" height="200"><defs><style type="text/css"></style></defs><path d="M701.866667 868.266667H177.066667c-70.4 0-123.733333-53.333333-123.733334-123.733334V343.466667c0-70.4 53.333333-123.733333 123.733334-123.733334H704c70.4 0 123.733333 53.333333 123.733333 123.733334v401.066666c-2.133333 70.4-57.6 123.733333-125.866666 123.733334zM177.066667 283.733333c-34.133333 0-59.733333 25.6-59.733334 59.733334v401.066666c0 34.133333 25.6 59.733333 59.733334 59.733334h524.8c34.133333 0 59.733333-25.6 61.866666-61.866667V343.466667c0-34.133333-25.6-59.733333-59.733333-59.733334H177.066667z" fill="#4E7CA5" p-id="3008"></path><path d="M981.333333 746.666667c-8.533333 0-19.2-2.133333-27.733333-8.533334l-177.066667-115.2 34.133334-53.333333 149.333333 98.133333v-256l-151.466667 85.333334-32-55.466667 179.2-102.4c17.066667-8.533333 34.133333-8.533333 46.933334 0 12.8 8.533333 19.2 21.333333 19.2 36.266667V704c0 17.066667-8.533333 32-23.466667 38.4-4.266667 4.266667-10.666667 4.266667-17.066667 4.266667z m8.533334-61.866667z" fill="#4E7CA5" p-id="3009"></path><path d="M164.266667 375.466667a36.266667 32 0 1 0 72.533333 0 36.266667 32 0 1 0-72.533333 0Z" fill="#517EA8" p-id="3010"></path><path d="M646.4 268.8c-29.866667 0-32-32-32-42.666667 0-8.533333 0-23.466667-2.133333-51.2 0-14.933333-4.266667-27.733333-10.666667-34.133333-10.666667-10.666667-27.733333-10.666667-27.733333-10.666667H262.4c-17.066667 0-32-14.933333-32-32s14.933333-32 32-32h309.333333c2.133333 0 40.533333-2.133333 72.533334 25.6 14.933333 12.8 32 38.4 32 78.933334 0 32 2.133333 49.066667 2.133333 55.466666v6.4c0 19.2-14.933333 36.266667-32 36.266667z" fill="#4E7CA5" p-id="3011"></path></svg>