<?xml version="1.0" standalone="no"?><!DOCTYPE svg PUBLIC "-//W3C//DTD SVG 1.1//EN" "http://www.w3.org/Graphics/SVG/1.1/DTD/svg11.dtd"><svg t="1615814887348" class="icon" viewBox="0 0 1024 1024" version="1.1" xmlns="http://www.w3.org/2000/svg" p-id="5377" xmlns:xlink="http://www.w3.org/1999/xlink" width="200" height="200"><defs><style type="text/css"></style></defs><path d="M388.654545 470.109091h246.69091v246.690909H388.654545z" fill="#fb7299" p-id="5378"></path><path d="M807.563636 269.963636L656.290909 139.636364c-16.290909-13.963636-39.563636-23.272727-62.836364-23.272728H279.272727C225.745455 116.363636 183.854545 158.254545 183.854545 211.781818V814.545455c0 51.2 41.890909 95.418182 95.418182 95.418181h465.454546c51.2 0 95.418182-41.890909 95.418182-95.418181V342.109091c0-27.927273-11.636364-53.527273-32.581819-72.145455z m-79.127272 463.127273c0 41.890909-34.909091 76.8-76.8 76.8H372.363636c-41.890909 0-76.8-34.909091-76.8-76.8V451.490909c0-41.890909 34.909091-76.8 76.8-76.8h279.272728c41.890909 0 76.8 34.909091 76.8 76.8v281.6z" fill="#fb7299" p-id="5379"></path></svg>