<?xml version="1.0" standalone="no"?><!DOCTYPE svg PUBLIC "-//W3C//DTD SVG 1.1//EN" "http://www.w3.org/Graphics/SVG/1.1/DTD/svg11.dtd"><svg t="1614088187339" class="icon" viewBox="0 0 1024 1024" version="1.1" xmlns="http://www.w3.org/2000/svg" p-id="4418" xmlns:xlink="http://www.w3.org/1999/xlink" width="200" height="200"><defs><style type="text/css"></style></defs><path d="M953.4816 480l-210.24 14.72a32 32 0 0 0-15.04 3.52l6.08-354.56a67.84 67.84 0 0 0-70.72-64L322.4416 154.24A67.52 67.52 0 0 0 261.3216 227.2l19.84 141.12c-5.12 0-10.24-1.92-15.36 0l-201.6 64a68.16 68.16 0 0 0-64 73.28l92.48 377.28a64 64 0 0 0 70.4 61.44l747.84-51.52a67.2 67.2 0 0 0 61.12-70.4L1024.2016 544a68.16 68.16 0 0 0-70.72-64zM354.1216 870.08L160.2016 883.52a2.24 2.24 0 0 1-2.56-2.24L64.2016 503.04a2.24 2.24 0 0 1 2.24-2.56l214.72-65.92a2.24 2.24 0 0 1 2.56 2.24z m314.24-21.76l-252.16 17.28L322.1216 224a2.56 2.56 0 0 1 2.24-2.88l343.68-75.52a2.56 2.56 0 0 1 2.88 2.24z m238.4-16.32l-175.04 11.84v-280a2.88 2.88 0 0 1 2.56-2.88l220.48-15.04a2.24 2.24 0 0 1 2.56 2.24l-51.84 281.28c3.52-0.32 3.52 2.56 1.28 2.56z" p-id="4419" fill="#fb7299"></path><path d="M573.9616 360.96l-46.08 167.68-52.8 3.84 46.08-172.16-46.4 3.2 16.96-38.4 56.96-5.12a26.56 26.56 0 0 1 18.88 5.44 24 24 0 0 1 8.32 18.24 49.28 49.28 0 0 1-1.92 17.28z m-302.72 265.28A68.8 68.8 0 0 1 256.2016 682.56a138.88 138.88 0 0 1-46.08 39.04l68.16-15.36-3.84 32-104 23.36 1.92-30.08a173.44 173.44 0 0 0 39.36-40A66.56 66.56 0 0 0 228.6816 640c-2.88-13.12-9.28-18.56-19.52-16.32a25.28 25.28 0 0 1 0 4.16 22.4 22.4 0 0 1-4.48 19.2 29.12 29.12 0 0 1-36.48 8.32 23.36 23.36 0 0 1-12.16-15.36 22.4 22.4 0 0 1 10.56-25.92 109.12 109.12 0 0 1 34.24-12.16 128 128 0 0 1 39.04-4.16 32 32 0 0 1 31.36 28.48z m620.48 5.44l-35.84 45.12a45.12 45.12 0 0 1 15.68 16.32 34.24 34.24 0 0 1 6.08 21.12 42.56 42.56 0 0 1-18.88 34.56 73.92 73.92 0 0 1-38.4 12.48 175.04 175.04 0 0 1-33.92 0 25.6 25.6 0 0 1-16.96-8 21.12 21.12 0 0 1 1.92-32 27.2 27.2 0 0 1 17.6-5.12 24.96 24.96 0 0 1 16.96 7.36 20.8 20.8 0 0 1 4.48 24.96 22.72 22.72 0 0 0 17.92-7.68 32 32 0 0 0 7.68-19.52 28.16 28.16 0 0 0-10.24-23.36 40.96 40.96 0 0 0-20.8-10.24l29.44-32-51.52-3.2 12.16-26.24z" p-id="4420" fill="#fb7299"></path></svg>