<?xml version="1.0" standalone="no"?><!DOCTYPE svg PUBLIC "-//W3C//DTD SVG 1.1//EN" "http://www.w3.org/Graphics/SVG/1.1/DTD/svg11.dtd"><svg t="1615815835627" class="icon" viewBox="0 0 1024 1024" version="1.1" xmlns="http://www.w3.org/2000/svg" p-id="12523" xmlns:xlink="http://www.w3.org/1999/xlink" width="200" height="200"><defs><style type="text/css"></style></defs><path d="M861.89 240.04c-3.66-28.71-9.09-55.64-14.2-81.07-1.83-14.51-14.19-25.11-30.16-25.11H207.14c-12.36 0-25.11 9.09-28.7 21.45-7.32 26.94-12.43 55.65-16.03 84.41-3.66 26.87-5.42 55.65-5.42 84.35 0 125.8 33.82 241.06 92.74 338.1 60.69 98.86 147.95 178.16 249.77 224.66 7.25 3.66 16.02 3.66 23.28 0 101.83-46.87 189.08-125.8 249.77-224.66 58.92-97.1 92.74-212.36 92.74-338.1 2.09-28.39 0.26-57.09-3.4-84.03z m-114.2 346.55c-1.57 5.42-4.98 9.9-9.46 12.43l-8.46 4.86c-4.29 2.46-8.96 2.9-13.31 1.7v47.13c-0.07 11.73-8.52 21.2-18.8 21.13h-10.03c-10.41 0-18.8-9.46-18.8-21.13v-33.38h-18.49v33.38c0 11.67-8.46 21.13-18.8 21.13h-10.03c-10.41 0-18.8-9.46-18.8-21.13V527.6l-38.48-20.57-3.15 3.16c-11.3 11.1-27.82 8.89-36.91-4.99l-15.65-23.97v161.76c0 17.03-12.3 30.85-27.44 30.85h-5.62c-15.14 0-27.44-13.82-27.44-30.85v-98.23h-23.47v98.17c0 17.03-12.3 30.85-27.44 30.85h-5.62c-15.14 0-27.44-13.82-27.44-30.85V527.22c-7.83 7.7-18.87 9.52-28.33 3.59l-7.19-4.48c-12.93-8.08-18.04-27.51-11.42-43.34l48.2-116.02c3.66-16.41 14.45-29.46 28.64-34.58-20.12-14.82-33.44-40.44-33.44-69.52 0-45.87 33.12-83.09 73.94-83.09s73.94 37.22 73.94 83.09c0 28.52-12.81 53.69-32.3 68.64 6.5 1.89 12.49 5.42 17.61 10.41 2.27 1.83 4.23 4.1 5.93 6.62l68.83 105.48c3.73-0.76 7.57-0.13 10.98 1.7l48.96 26.18c-12.05-11.29-19.05-28.14-19.05-45.93 0-33.06 23.85-59.87 53.31-59.87s53.31 26.81 53.31 59.87c0 19.62-8.52 37.98-22.77 49.09 8.14-1.45 16.21 3.15 20 11.42l33.37 73.56c2.26 5.19 2.64 11.12 1.12 16.55z m0 0" p-id="12524" fill="#fb7299"></path></svg>