<?xml version="1.0" standalone="no"?><!DOCTYPE svg PUBLIC "-//W3C//DTD SVG 1.1//EN" "http://www.w3.org/Graphics/SVG/1.1/DTD/svg11.dtd"><svg t="1614436000408" class="icon" viewBox="0 0 1024 1024" version="1.1" xmlns="http://www.w3.org/2000/svg" p-id="4843" xmlns:xlink="http://www.w3.org/1999/xlink" width="200" height="200"><defs><style type="text/css"></style></defs><path d="M417.984 848.32l-4.608-0.128c-39.552-1.088-76.032-17.536-102.848-46.336-21.568-23.232-34.752-52.352-38.08-84.224l-0.832-7.808 87.744-63.168c2.112-153.024 71.616-456.96 109.312-537.984 6.912-14.912 15.104-28.736 28.224-28.736l5.632 0 5.12 4.544c12.8 12.8 17.984 83.072 17.024 485.312l-0.128 73.664c0 113.728-34.88 157.44-64.192 174.08L417.984 848.32zM300.608 722.56c3.84 22.848 14.08 43.776 29.888 60.672 20.736 22.336 48.704 35.52 79.104 37.504l36.032-26.112c20.096-11.52 51.648-45.184 51.648-151.104l0.064-73.728C497.728 436.288 498.24 203.584 490.88 125.824 453.248 213.76 386.624 514.048 386.624 653.696l0 7.104-5.888 4.032L300.608 722.56z" fill="#1afa29" p-id="4844"></path><path d="M599.936 846.08l-48.832-35.328c-11.328-8.256-20.16-19.2-26.368-32.64-17.664-30.528-26.88-76.16-26.88-134.656L497.728 569.344C496.832 167.488 502.016 97.28 514.752 84.48l3.968-4.032 6.784-0.512c13.12 0 21.312 13.824 28.224 28.736 37.76 81.28 107.456 386.432 109.312 539.008l55.936 40.256 0.384 6.528c2.24 40.064-11.52 78.272-38.656 107.456-20.16 21.632-46.016 36.416-74.752 42.88L599.936 846.08zM531.52 125.824C524.16 203.52 524.736 435.968 524.992 569.28l0.128 74.24c0 53.632 8 94.656 23.872 122.112 4.736 10.24 10.688 17.6 18.112 22.976l38.72 28.032c20.992-5.888 39.872-17.344 54.848-33.408 20.672-22.144 31.744-50.688 31.616-80.96l-56.512-40.64 0-6.976C635.84 514.112 569.216 213.824 531.52 125.824z" fill="#1afa29" p-id="4845"></path><path d="M950.336 944.064 735.36 944.064l-152.896-110.656 26.944-7.744c22.592-6.464 42.752-18.816 58.432-35.712 22.144-23.808 34.304-54.848 34.24-87.616l-0.064-26.688 175.616 126.528c28.416 20.48 118.528 90.88 86.144 135.68l-3.328 4.544L950.336 944.064zM744.256 916.8l199.104 0c1.152-17.92-33.344-57.6-81.6-92.48l-134.336-96.768c-4.864 30.272-18.496 58.368-39.552 81.024-13.12 14.144-28.8 25.6-46.272 33.984L744.256 916.8z" fill="#1afa29" p-id="4846"></path><path d="M285.568 944.064l-225.088-1.6-3.328-4.544c-32.32-44.736 57.664-115.2 86.016-135.68l143.872-103.488 3.2 22.272c3.712 25.984 15.104 49.792 32.96 68.992 20.8 22.464 49.088 36.608 79.552 40l35.072 3.968L285.568 944.064zM267.904 746.112 159.232 824.32c-48.384 35.008-82.88 74.88-81.536 92.672l199.104-0.192 91.904-66.496c-24.896-8.128-47.424-22.464-65.344-41.792C286.656 790.656 274.624 769.344 267.904 746.112z" fill="#1afa29" p-id="4847"></path></svg>