<?xml version="1.0" standalone="no"?><!DOCTYPE svg PUBLIC "-//W3C//DTD SVG 1.1//EN" "http://www.w3.org/Graphics/SVG/1.1/DTD/svg11.dtd"><svg t="1614436039301" class="icon" viewBox="0 0 1024 1024" version="1.1" xmlns="http://www.w3.org/2000/svg" p-id="5995" xmlns:xlink="http://www.w3.org/1999/xlink" width="200" height="200"><defs><style type="text/css"></style></defs><path d="M182.784 596.992c-114.176-116.736-114.176-303.616 0-420.352 111.104-114.176 293.376-116.224 407.04-5.632l0.512 0.512 5.12 5.12c114.176 116.736 114.176 303.616 0 420.352-111.104 114.176-293.376 116.224-407.04 5.632l-0.512-0.512-5.12-5.12M972.8 848.896l-187.904-190.976-10.752-10.752c-10.752-11.264-28.672-11.264-39.936-0.512l-0.512 0.512-18.944 19.456-44.032-44.544c118.784-148.48 108.032-361.984-24.576-497.664-138.24-142.848-366.08-145.92-508.416-7.168l-6.656 6.656c-142.336 145.92-142.336 379.392 0 525.312 131.584 134.656 344.576 145.408 488.96 25.088l44.032 44.544-18.944 19.456c-11.264 11.264-11.264 29.696 0 40.96l8.192 8.192 190.464 194.048c34.816 35.84 92.672 36.352 128.512 1.536l1.536-1.536c34.816-36.864 34.816-95.744-1.024-132.608" fill="#3366FF" p-id="5996"></path><path d="M543.744 228.864c-83.456-85.504-220.16-87.04-305.664-4.096-1.536 1.024-2.56 2.56-4.096 4.096-85.504 88.064-85.504 227.84 0 315.392 83.456 85.504 220.16 87.04 305.664 4.096l4.096-4.096c85.504-87.552 85.504-227.328 0-315.392" fill="#AEC9FF" p-id="5997"></path></svg>