<?xml version="1.0" standalone="no"?><!DOCTYPE svg PUBLIC "-//W3C//DTD SVG 1.1//EN" "http://www.w3.org/Graphics/SVG/1.1/DTD/svg11.dtd"><svg t="1614084848507" class="icon" viewBox="0 0 1024 1024" version="1.1" xmlns="http://www.w3.org/2000/svg" p-id="2140" xmlns:xlink="http://www.w3.org/1999/xlink" width="200" height="200"><defs><style type="text/css"></style></defs><path d="M517.5296 537.6a221.6448 221.6448 0 1 0-235.2128 0A352.3584 352.3584 0 0 0 48.128 868.9152a27.0848 27.0848 0 1 0 54.1696 0 297.6256 297.6256 0 0 1 595.2512 0 27.0848 27.0848 0 1 0 54.1696 0A352.3584 352.3584 0 0 0 517.5296 537.6zM232.4992 349.6448A167.4752 167.4752 0 1 1 399.9232 517.12a167.6288 167.6288 0 0 1-167.424-167.4752z" fill="#dbdbdb" p-id="2141"></path><path d="M780.7488 531.9168a193.024 193.024 0 0 0-109.1072-352.3584 27.0848 27.0848 0 0 0 0 54.1696 138.9056 138.9056 0 0 1 0 277.8624 27.0848 27.0848 0 0 0 0 54.1696A250.3168 250.3168 0 0 1 921.6 815.7696a27.0848 27.0848 0 1 0 54.1696 0 304.64 304.64 0 0 0-195.0208-283.8528z" fill="#dbdbdb" p-id="2142"></path></svg>