<?xml version="1.0" standalone="no"?><!DOCTYPE svg PUBLIC "-//W3C//DTD SVG 1.1//EN" "http://www.w3.org/Graphics/SVG/1.1/DTD/svg11.dtd"><svg t="1614435945241" class="icon" viewBox="0 0 1024 1024" version="1.1" xmlns="http://www.w3.org/2000/svg" p-id="3076" xmlns:xlink="http://www.w3.org/1999/xlink" width="200" height="200"><defs><style type="text/css"></style></defs><path d="M1006.134682 845.2096h-85.2992V418.0992A49.664 49.664 0 0 0 871.171482 368.64H720.336282a49.5616 49.5616 0 0 0-49.5616 49.5616v427.008h-17.5104l-47.5136-132.3008A112.64 112.64 0 0 0 576.259482 542.72V426.5984a81.92 81.92 0 0 0-35.9424-138.4448v-24.2688a16.9984 16.9984 0 0 0 0-2.2528 40.96 40.96 0 0 0 0-70.8608 21.4016 21.4016 0 0 0 0-3.6864v-30.72a20.48 20.48 0 0 0-40.96 0v30.72a21.504 21.504 0 0 0 0 3.6864 40.96 40.96 0 0 0 0 70.8608 16.7936 16.7936 0 0 0 0 2.2528v24.2688a81.92 81.92 0 0 0-35.7376 138.6496V542.72a112.64 112.64 0 0 0-22.528 177.9712l-44.6464 124.5184h-28.672V743.424a43.6224 43.6224 0 0 0 5.9392-9.5232 151.2448 151.2448 0 0 0-36.4544-176.4352 151.04 151.04 0 0 0-237.568 176.128 50.3808 50.3808 0 0 0 6.144 10.24v102.4H17.974682A20.48 20.48 0 0 0 0.054682 868.0448a20.48 20.48 0 0 0 17.92 20.48h988.16A20.48 20.48 0 0 0 1024.054682 865.28a20.48 20.48 0 0 0-17.92-20.0704zM126.928282 670.208c10.8544 2.8672 21.8112 5.3248 32.768 7.3728a398.0288 398.0288 0 0 0 6.5536 45.056h-19.8656a10.24 10.24 0 0 1-9.5232-6.2464 109.4656 109.4656 0 0 1-9.9328-46.1824z m219.8528 0a109.2608 109.2608 0 0 1-10.24 46.08 10.24 10.24 0 0 1-9.4208 6.0416h-28.7744a389.12 389.12 0 0 0 6.3488-43.2128 427.2128 427.2128 0 0 0 42.0864-8.6016z m-19.968 113.664v54.784H146.793882v-54.4768a15.36 15.36 0 0 1 15.36-15.36h149.2992a15.36 15.36 0 0 1 15.36 15.36z m-70.3488-61.44h-48.2304a348.16 348.16 0 0 1-6.7584-39.424c11.9808 0.9216 23.9616 1.536 35.9424 1.536 8.6016 0 17.1008 0 25.6-0.9216a337.92 337.92 0 0 1-6.9632 39.0144z m82.6368-92.16q-16.2816 4.4032-32.8704 7.3728a392.2944 392.2944 0 0 0-5.3248-56.7296 105.0624 105.0624 0 0 1 9.1136 7.2704 110.08 110.08 0 0 1 29.0816 41.984z m-115.3024-69.3248a114.176 114.176 0 0 1 13.2096-0.7168 108.544 108.544 0 0 1 18.2272 1.536 349.4912 349.4912 0 0 1 10.24 80.896 376.7296 376.7296 0 0 1-66.2528-0.9216 341.1968 341.1968 0 0 1 9.728-77.9264 115.3024 115.3024 0 0 1 14.848-2.8672z m-61.44 28.5696a384.6144 384.6144 0 0 0-3.6864 46.08c-7.9872-1.6384-16.0768-3.584-24.064-5.7344a109.568 109.568 0 0 1 27.5456-40.3456zM711.734682 418.0992a8.704 8.704 0 0 1 8.6016-8.6016h150.8352a8.704 8.704 0 0 1 8.704 8.6016v423.5264h-82.944V691.9168a21.504 21.504 0 1 0-42.9056 0v149.7088H711.734682z m-102.4 427.1104h-69.0176v-94.3104a115.9168 115.9168 0 0 0 31.6416-10.9568zM461.776282 682.1888h116.0192a71.68 71.68 0 0 1-116.0192 0z m58.0608-355.7376A40.96 40.96 0 0 1 548.201882 337.92H491.574682a40.96 40.96 0 0 1 28.2624-11.4688zM480.720282 378.88h78.2336a40.96 40.96 0 0 1-78.2336 0z m39.1168 70.3488a86.016 86.016 0 0 0 15.4624-1.536v17.8176h-30.72v-17.7152a82.8416 82.8416 0 0 0 15.2576 1.536z m-15.2576 57.2416h30.72v22.1184a129.3312 129.3312 0 0 0-15.4624-1.1264 107.008 107.008 0 0 0-15.2576 1.1264z m15.2576 61.952a71.68 71.68 0 0 1 71.68 71.68v1.536a21.9136 21.9136 0 0 0-4.608-0.512h-133.12a19.3536 19.3536 0 0 0-5.4272 0.8192 11.1616 11.1616 0 0 1 0-1.8432 71.68 71.68 0 0 1 71.4752-71.5776zM476.214682 744.0384a116.1216 116.1216 0 0 0 23.1424 6.8608v94.3104H440.374682z" p-id="3077" fill="#fb7299"></path></svg>