<?xml version="1.0" standalone="no"?><!DOCTYPE svg PUBLIC "-//W3C//DTD SVG 1.1//EN" "http://www.w3.org/Graphics/SVG/1.1/DTD/svg11.dtd"><svg t="1615815854822" class="icon" viewBox="0 0 1024 1024" version="1.1" xmlns="http://www.w3.org/2000/svg" p-id="13375" xmlns:xlink="http://www.w3.org/1999/xlink" width="200" height="200"><defs><style type="text/css"></style></defs><path d="M598.8 852H425.2c-67.5 0-130.3-36.3-164-94.7l-86.9-150.6c-33.7-58.4-33.7-130.9 0-189.2l86.9-150.6c33.7-58.4 96.6-94.7 164-94.7h173.5c67.5 0 130.3 36.3 164 94.7l86.9 150.6c33.7 58.4 33.7 130.9 0 189.2l-86.9 150.6c-33.6 58.4-96.5 94.7-163.9 94.7zM313.2 727.3c23 39.9 66 64.7 112 64.7h173.5c46.1 0 89-24.8 112-64.7l86.9-150.6c23-39.9 23-89.4 0-129.3l-86.9-150.6c-23-39.9-66-64.7-112-64.7H425.2c-46.1 0-89 24.8-112 64.7l-86.9 150.6c-23 39.9-23 89.4 0 129.3l86.9 150.6z" p-id="13376" fill="#fb7299"></path><path d="M512 666c-84.9 0-154-69.1-154-154s69.1-154 154-154 154 69.1 154 154-69.1 154-154 154z m0-248c-51.8 0-94 42.2-94 94s42.2 94 94 94 94-42.2 94-94-42.2-94-94-94z" p-id="13377" fill="#fb7299"></path></svg>