<?xml version="1.0" standalone="no"?><!DOCTYPE svg PUBLIC "-//W3C//DTD SVG 1.1//EN" "http://www.w3.org/Graphics/SVG/1.1/DTD/svg11.dtd"><svg t="1614180204421" class="icon" viewBox="0 0 1024 1024" version="1.1" xmlns="http://www.w3.org/2000/svg" p-id="4176" xmlns:xlink="http://www.w3.org/1999/xlink" width="200" height="200"><defs><style type="text/css"></style></defs><path d="M968.60387555 366.4651757L762.47495111 366.4651757c-26.29680545 0-47.56724243-21.30660315-47.56724243-47.56954832 0-26.26076065 21.27165061-47.56724243 47.56724243-47.56724243l82.74757404 0c-74.64295538-105.47230341-197.38593659-174.41678222-336.4460468-174.41678223-227.68541392 0-412.26027615 184.57607585-412.26027616 412.2578489 0 227.6842003 184.57607585 412.25906252 412.26027616 412.25906251 227.6842003 0 412.25906252-184.57607585 412.2590625-412.25906251 0-26.26076065 21.27055835-47.56724243 47.56615017-47.56724244 26.26294518 0 47.57076195 21.30660315 47.57076196 47.56724244 0 280.22586785-227.19146667 507.39670282-507.39670281 507.39670281-280.20887703 0-507.39791645-227.16962133-507.39791645-507.39670281 0-280.22465422 227.18903941-507.39548918 507.39791645-507.39548919 170.06227911 0 320.27079111 83.84554477 412.25906251 212.30629926l0-85.45688084c0-26.26294518 21.27055835-47.56845605 47.56615017-47.56845605 26.26294518 0 47.57076195 21.30551088 47.57076195 47.56845605l0 190.27285334C1016.17451615 345.15869392 994.86439348 366.4651757 968.60387555 366.4651757Z" fill="#fb7299" p-id="4177"></path></svg>