<?xml version="1.0" standalone="no"?><!DOCTYPE svg PUBLIC "-//W3C//DTD SVG 1.1//EN" "http://www.w3.org/Graphics/SVG/1.1/DTD/svg11.dtd"><svg t="1614435917935" class="icon" viewBox="0 0 1024 1024" version="1.1" xmlns="http://www.w3.org/2000/svg" p-id="2134" xmlns:xlink="http://www.w3.org/1999/xlink" width="200" height="200"><defs><style type="text/css"></style></defs><path d="M318.541238 70.711291h243.185895a37.373832 37.373832 0 0 0 39.421714-39.421714c0-23.550634-23.550634-31.230189-39.421714-31.230188H318.541238a37.373832 37.373832 0 0 0-39.421713 39.421713c0 23.550634 15.871079 31.230189 39.421713 31.230189z m416.231859 227.826786a37.373832 37.373832 0 0 0-39.421714-39.421714h-511.970306a37.373832 37.373832 0 0 0-37.373832 39.421714 36.861862 36.861862 0 0 0 39.421714 38.909743h517.601979a35.837921 35.837921 0 0 0 31.742159-38.909743z" fill="#1296db" p-id="2135"></path><path d="M954.408358 614.423755c-7.679555-7.679555-39.421714-7.679555-39.421714-7.679554h-219.635261l204.788122-298.478688c7.679555-15.871079 0-31.230189-15.871079-47.101269a51.197031 51.197031 0 0 0-47.101268 7.679555l-235.506341 353.771481a35.325951 35.325951 0 0 0 15.87108 47.101268c7.679555 7.679555 38.909743 7.679555 38.909743 7.679555h211.443736l-164.854438 227.826786-54.780823-47.101268H153.6868a51.197031 51.197031 0 0 1-47.101268-47.101268V157.234272a51.197031 51.197031 0 0 1 47.101268-47.101268h70.651902a34.30201 34.30201 0 0 0 31.230189-31.742159 33.79004 33.79004 0 0 0-31.230189-31.230188H153.6868A107.513764 107.513764 0 0 0 43.613184 157.234272V808.972472a107.513764 107.513764 0 0 0 110.073616 109.561645h541.664583L657.977551 972.802969c-7.679555 15.359109 0 31.230189 15.871079 47.101269a47.613238 47.613238 0 0 0 47.101268-8.191525l259.056975-353.259511a47.613238 47.613238 0 0 0-23.550634-47.101268z" fill="#1296db" p-id="2136"></path><path d="M679.480304 431.650356H184.916988a39.421714 39.421714 0 0 0 0 78.843427h447.462048zM146.007245 635.926508a36.349892 36.349892 0 0 0 39.421714 31.742159h351.211629l41.981565-70.651902H184.916988a36.861862 36.861862 0 0 0-39.421713 38.909743zM657.977551 110.133004h70.651902a51.197031 51.197031 0 0 1 47.101268 47.101268v122.872874l62.972348-102.394061v-20.478813A107.513764 107.513764 0 0 0 726.581572 47.160657H657.977551a33.79004 33.79004 0 0 0-31.230189 31.230188 34.30201 34.30201 0 0 0 31.230189 31.742159z" fill="#1296db" p-id="2137"></path></svg>