<?xml version="1.0" standalone="no"?><!DOCTYPE svg PUBLIC "-//W3C//DTD SVG 1.1//EN" "http://www.w3.org/Graphics/SVG/1.1/DTD/svg11.dtd"><svg t="1614342905076" class="icon" viewBox="0 0 1024 1024" version="1.1" xmlns="http://www.w3.org/2000/svg" p-id="3998" xmlns:xlink="http://www.w3.org/1999/xlink" width="200" height="200"><defs><style type="text/css"></style></defs><path d="M511.472 804.432c-77.64 0-149.293-14.686-212.968-43.65-51.222-23.302-97.27-55.775-136.867-96.521-67.45-69.407-92.88-138.974-93.93-141.901l-4.32-12.053 5.523-11.55c1.374-2.875 34.475-71.189 105.12-139.667 41.646-40.369 87.871-72.58 137.392-95.737 62.133-29.055 129.44-43.786 200.05-43.786 69.18 0 135.602 14.741 197.422 43.814 49.178 23.127 95.44 55.286 137.501 95.583 71.298 68.305 105.935 136.385 107.375 139.249l6.844 13.62-6.714 13.686c-1.407 2.87-35.29 71.062-106.267 139.453-41.859 40.333-88.103 72.517-137.449 95.659-61.973 29.065-128.83 43.801-198.712 43.801zM130.601 513.547c9.598 20.767 33.404 65.616 76.897 109.795 34.229 34.768 73.92 62.441 117.971 82.25 55.25 24.845 117.83 37.443 186.003 37.443 60.368 0 118.065-12.6 171.49-37.453 43.067-20.033 83.626-48.081 120.548-83.363 45.886-43.845 74.89-88.312 87.683-110.072-13.016-21.747-42.52-66.32-88.764-110.27-37.168-35.326-77.807-63.405-120.785-83.46-53.259-24.85-110.513-37.452-170.17-37.452-61.103 0-119.26 12.601-172.855 37.453-43.16 20.013-83.636 48.026-120.303 83.26-46.972 45.135-75.812 90.935-87.715 111.87z" p-id="3999"></path><path d="M625.199 431.737a47.35 47.35 0 0 1 0.423 6.237c0 26.172-21.214 47.388-47.388 47.388-26.171 0-47.385-21.214-47.385-47.388 0-26.17 21.212-47.385 47.385-47.385 2.135 0 4.235 0.153 6.295 0.428-23.024-15.335-50.673-24.278-80.409-24.278-80.226 0-145.26 65.033-145.26 145.258 0 80.224 65.034 145.26 145.26 145.26 80.223 0 145.257-65.036 145.257-145.26 0.003-29.673-8.902-57.263-24.178-80.26z" p-id="4000"></path></svg>