<?xml version="1.0" standalone="no"?><!DOCTYPE svg PUBLIC "-//W3C//DTD SVG 1.1//EN" "http://www.w3.org/Graphics/SVG/1.1/DTD/svg11.dtd"><svg t="1614866811308" class="icon" viewBox="0 0 1024 1024" version="1.1" xmlns="http://www.w3.org/2000/svg" p-id="2149" xmlns:xlink="http://www.w3.org/1999/xlink" width="200" height="200"><defs><style type="text/css"></style></defs><path d="M512 0c57.6 0 108.8 44.8 108.8 108.8S569.6 211.2 512 211.2s-108.8-44.8-108.8-102.4S454.4 0 512 0z m0 812.8c57.6 0 108.8 44.8 108.8 108.8S569.6 1024 512 1024s-108.8-44.8-108.8-108.8 51.2-102.4 108.8-102.4z m0-409.6c57.6 0 108.8 44.8 108.8 108.8S569.6 620.8 512 620.8 403.2 569.6 403.2 512 454.4 403.2 512 403.2z" fill="#ffffff" p-id="2150"></path></svg>