<?xml version="1.0" standalone="no"?><!DOCTYPE svg PUBLIC "-//W3C//DTD SVG 1.1//EN" "http://www.w3.org/Graphics/SVG/1.1/DTD/svg11.dtd"><svg t="1614520530675" class="icon" viewBox="0 0 1024 1024" version="1.1" xmlns="http://www.w3.org/2000/svg" p-id="2417" xmlns:xlink="http://www.w3.org/1999/xlink" width="200" height="200"><defs><style type="text/css"></style></defs><path d="M825 788.98c82.87-72.76 134.33-174.06 134.33-286.16 0-221.43-200.58-400.93-448-400.93s-448 179.5-448 400.93 200.58 400.93 448 400.93c71.85 0 139.7-15.22 199.89-42.13 51.52 26.34 129.88 49.4 241.97 42.13 0 0-85.4-47.98-128.19-114.77z m-311.19-6.41c-154.13 0-279.08-124.95-279.08-279.08s124.95-279.08 279.08-279.08c75.01 0 143.06 29.65 193.21 77.8-34.85-20.64-75.51-32.53-118.95-32.53-129.13 0-233.81 104.68-233.81 233.81S458.94 737.3 588.06 737.3c43.45 0 84.1-11.89 118.95-32.53-50.14 48.15-118.19 77.8-193.2 77.8z m107.45-301.2c0.66 0 1.19 0.53 1.19 1.19v41.88c0 0.66-0.53 1.19-1.19 1.19h-69.31v69.31c0 0.66-0.53 1.19-1.19 1.19h-41.88c-0.66 0-1.19-0.53-1.19-1.19v-69.31h-69.31c-0.66 0-1.19-0.53-1.19-1.19v-41.88c0-0.66 0.53-1.19 1.19-1.19h69.31v-69.31c0-0.66 0.53-1.19 1.19-1.19h41.88c0.66 0 1.19 0.53 1.19 1.19v69.31h69.31z m-27.94 216.74c-52.31 0-99.76-20.68-134.74-54.26 24.31 14.4 52.65 22.69 82.95 22.69 90.05 0 163.05-73 163.05-163.05 0-90.05-73-163.05-163.05-163.05-30.3 0-58.65 8.29-82.95 22.69 34.97-33.58 82.42-54.26 134.74-54.26 107.48 0 194.62 87.13 194.62 194.62S700.8 698.11 593.32 698.11z" fill="#1890FF" p-id="2418"></path></svg>