<?xml version="1.0" standalone="no"?><!DOCTYPE svg PUBLIC "-//W3C//DTD SVG 1.1//EN" "http://www.w3.org/Graphics/SVG/1.1/DTD/svg11.dtd"><svg t="1614237150308" class="icon" viewBox="0 0 1216 1024" version="1.1" xmlns="http://www.w3.org/2000/svg" p-id="2687" xmlns:xlink="http://www.w3.org/1999/xlink" width="237.5" height="200"><defs><style type="text/css"></style></defs><path d="M605.97429 1023.936004c-28.286232 0-56.63646-10.111368-80.890944-30.270108-145.718893-129.079933-394.535342-349.034185-418.853822-373.224674C25.33858 539.806262-11.13914 428.773202 3.067972 315.820261 23.290708 156.470221 154.802489 23.35854 316.648373 3.1998A364.265233 364.265233 0 0 1 608.022162 93.882132C686.929231 23.294544 792.138655-8.95944 899.395952 3.1998c163.829761 20.15874 291.309793 149.302669 313.580401 312.684457 14.207112 112.95294-22.270608 223.986001-103.161553 304.620961-28.350228 24.190488-277.230673 244.144741-422.885569 373.224674-24.31848 20.15874-52.604712 30.270108-80.954941 30.270108zM162.865985 563.99675c16.190988 16.126992 176.052997 157.302169 416.805949 369.12893 16.190988 14.143116 38.461596 14.143116 52.604712 0 244.848697-213.810637 400.614962-353.001937 416.80595-369.12893 62.71608-62.588088 91.066308-149.302669 80.95494-238.065121-16.190988-125.11218-117.368664-225.969877-242.800825-242.096869-95.098056-12.15924-186.164365 22.206612-250.864321 92.794201a40.63746 40.63746 0 0 1-60.732204 0c-62.71608-72.63546-153.782389-104.95344-250.864321-92.794201-125.43216 16.126992-226.609837 116.984688-242.800825 242.096869-10.111368 88.762452 18.174864 175.477033 80.890945 238.065121z m801.229923-44.413224a39.9975 39.9975 0 0 1-28.286232-12.15924 38.909568 38.909568 0 0 1 0-56.444472c22.270608-22.206612 36.413724-52.47672 36.413724-84.730705a121.5924 121.5924 0 0 0-121.400413-121.016436 40.509468 40.509468 0 0 1-40.445472-40.31748c0-22.206612 18.174864-40.381476 40.445472-40.381476a202.611337 202.611337 0 0 1 202.355353 201.715392c0 54.460596-20.286732 104.95344-58.684332 143.223049-10.111368 6.07962-20.222736 10.111368-30.3981 10.111368z" p-id="2688" fill="#aaaaaa"></path></svg>