<?xml version="1.0" standalone="no"?><!DOCTYPE svg PUBLIC "-//W3C//DTD SVG 1.1//EN" "http://www.w3.org/Graphics/SVG/1.1/DTD/svg11.dtd"><svg t="1614001641761" class="icon" viewBox="0 0 1024 1024" version="1.1" xmlns="http://www.w3.org/2000/svg" p-id="1625" xmlns:xlink="http://www.w3.org/1999/xlink" width="200" height="200"><defs><style type="text/css"></style></defs><path d="M512.6 958.5c-27.3 0-54.8-2.6-81.8-7.6l-0.5 0.1c-0.7-0.4-1.6-0.7-2.7-0.8-56.4-11-109.4-32.4-157.7-63.7-48.7-31.5-90.3-71.5-123.5-118.9-34.3-49.1-58.1-103.9-70.8-162.9-12.7-59-13.4-118.8-2.1-177.6 10.8-56.7 32.2-110.1 63.7-158.8 0.7-0.9 1.3-1.8 1.8-2.6 0.2-0.3 0.4-0.6 0.5-0.8l0.5-0.9c0.1-0.2 0.2-0.4 0.3-0.5l0.4-0.2c11.7-17.6 24.6-34.3 38.5-49.9l0.2-0.6c0.4-0.3 0.7-0.6 1-0.9l0.3-0.3c22.8-25.3 48.3-47.8 75.6-66.9 49.1-34.3 103.9-58.1 162.9-70.8 31.1-6.7 62.7-10 94-10 27.9 0 56 2.7 83.6 8 56.8 10.8 110.3 32.3 159.1 63.9 48.7 31.5 90.3 71.5 123.5 118.9 34.3 48.8 58.1 103.6 70.8 162.9 12.7 59 13.4 118.8 2.1 177.6-10.8 56.8-32.3 110.3-63.9 159.1-31.4 48.6-71.4 90.2-118.8 123.4-49.1 34.3-103.9 58.1-162.9 70.8-31.1 6.7-62.7 10-94.1 10z m-67.8-52.9a9.85 9.85 0 0 0-0.2 8.7c1.3 2.9 4 5 7.1 5.6l0.4 0.1c20.1 3 40.6 4.6 61 4.6 13.6 0 27.4-0.7 41-2.1 4.3-0.4 7.9-3.5 8.8-7.7 0.9-4.4-1.1-8.7-5-10.8-25.8-13.7-50.9-28.9-74.7-45.2-1.6-1.1-3.6-1.7-5.6-1.7-3 0-5.9 1.4-7.9 3.7l-0.7 1c-8.9 14.8-17 29.5-24.2 43.8z m-31.2 6.8c0.8 0.2 1.6 0.3 2.5 0.3 3.7 0 7.2-2.2 8.8-5.5 9.6-19.6 20.1-38.7 31.1-56.7l0.1-0.2c2.4-4.2 1.4-9.5-2.3-12.6l-0.3-0.2c-39.4-29.8-76.5-63.9-110.3-101.3-20.4-22.6-39.6-46.5-57.1-70.9-1.7-2.8-4.8-4.5-8.2-4.5-1.1 0-2.1 0.2-3.1 0.5l-0.2 0.1c-0.8 0.3-1.6 0.5-2.4 0.6-0.7 0.1-1.2 0.3-1.6 0.4 0.4-0.1 1.2-0.4 2.3-0.4l-2.6 0.4c-3.6 1.2-6.2 4.2-6.9 7.9v0.2c-7.3 51.9-10.6 104.8-9.8 157.5 0 2.1 0.6 4 1.8 5.8l1.7 1.9c46.1 36.2 100.2 62.7 156.5 76.7z m196.6-1.9c1.3 0.7 2.8 1 4.3 1 1.1 0 2.3-0.2 3.3-0.6 60.5-15.7 115.2-44.2 162.8-84.7 2.2-1.7 3-4 3.2-4.7l0.1-0.4c20.5-74.9 29.5-152.7 26.7-231.1v-0.5c-0.5-5.1-4.8-9-9.9-9-1.3 0-2.5 0.2-3.7 0.7-32.9 13.7-65 29.9-95.6 48.4-85.4 51.8-156.7 119.2-212.1 200.6-1.5 2.2-2.1 4.9-1.6 7.5 0.5 2.5 1.9 4.7 4 6.2l0.1 0.1c37.2 25.4 77 47.8 118.4 66.5z m-148.6-88.7c1.7 1.5 3.9 2.3 6.2 2.3 3.2 0 6.2-1.6 8.1-4.2l0.1-0.1c13.8-20.1 28.5-39.4 43.8-57.5 49.3-58.1 107.4-107.7 172.8-147.3 35-21.3 71.8-39.5 109.3-54.1 4.2-1.5 6.8-5.8 6.3-10.2-6.6-76.5-24.3-151.1-52.7-221.8l-0.3-0.6c-1.7-3.4-5.1-5.6-8.9-5.6-0.4 0-0.9 0-1.3 0.1-1.7 0.2-3.4 0.3-5.1 0.3-19.5 0-36.6-13.9-40.7-33.1-0.8-3.7-1.1-7.1-0.9-10.6v-0.5c0-4.3-2.7-8.1-6.7-9.5-64.9-22.6-132.3-38.5-200.3-47.2-0.5-0.1-0.9-0.1-1.4-0.1-3.7 0-7.1 2.1-8.8 5.5l-0.1 0.1c-5.6 11.6-16.1 19.9-28.9 22.7-2.8 0.6-5.8 0.9-8.7 0.9-3.4 0-6.8-0.4-10.2-1.3-0.9-0.2-1.7-0.4-2.6-0.4-3 0-5.8 1.4-7.8 3.8l-0.4 0.6c-65.6 98.4-112.9 206.4-140.7 321.1-1.1 4.1 0.6 8.5 4.2 10.8 9.2 6.1 15.6 15.5 18 26.3 2.3 10.5 0.4 21.3-5.2 30.5-2.3 3.5-2.1 7.9 0.3 11.1 16.9 23.8 36 47.6 56.9 70.7 32 35.5 67.5 68.2 105.7 97.3z m-242-19.8c1.8 1.9 4.4 3 7.1 3 5.4 0 9.8-4.4 9.9-9.7 0.8-43 4.3-86.1 10.2-127.9 0.6-3.9-1.3-7.9-4.7-9.9-10.3-6.1-17.6-16.1-20-27.5-2.8-13.3 1-27.2 10.3-37.2 2.8-3 3.5-7.5 1.6-11.2l-0.1-0.2c-12.4-23-23.8-47-33.9-71.2-21.4-51.5-37.3-105.5-47.3-160.6-0.8-4.8-4.8-8.2-9.7-8.2-3.9 0-7.5 2.4-9.1 6-34.4 79.3-43 165.9-24.9 250.4C125.6 675.3 163.8 746 219.6 802z m694.7-256.7c-0.7 0-1.3 0.1-2 0.2h-0.1c-26.3 5.6-52.7 13-78.5 21.9-3.9 1.3-6.7 5.1-6.7 9.4v0.4c3.3 63.9-1.1 127.5-13 189.2-0.6 2.9 0.2 5.8 2 8.1 1.9 2.3 4.7 3.6 7.7 3.6 2.8 0 5.4-1.2 7.3-3.2l0.2-0.3C883 712 915.1 636.4 924 556.1c0.3-2.9-0.6-5.6-2.5-7.7-1.7-1.9-4.4-3.1-7.2-3.1zM163.6 290.7c-1.1 1.7-1.6 3.6-1.6 5.7l0.1 0.9c11.1 96.9 39.9 189.1 85.4 274l0.1 0.3c1.8 3.1 5 4.9 8.6 4.9 4.6 0 8.6-3.1 9.7-7.6 11.4-46.7 26.4-93.1 44.4-138 26.3-65.5 59.4-128.2 98.3-186.6 2.2-3.1 2.4-7.4 0.3-10.8l-0.2-0.3c-2.4-3.6-4.2-7.5-5.5-11.5l-0.1-0.2c-1.3-4-5.1-6.8-9.2-6.8-10.1-0.3-20.4-0.5-30.5-0.5-48.6 0-97.5 3.6-145.5 10.6l-0.8 0.2c-1.8 0.5-3.5 1.4-4.8 2.7l-0.2 0.2c-18.2 19.3-34.5 40.5-48.5 62.8z m660.6 248.8c0.3 5.1 4.6 9.2 9.8 9.2 1.1 0 2.1-0.2 3.1-0.5 26.4-8.7 53.8-16 81.4-21.5 4.3-0.8 7.6-4.2 8.1-8.8l0.1-0.9c0.4-31.4-2.7-62.6-9.2-92.6-3.6-16.6-8.2-32.7-13.9-49.3-0.7-2-2.1-3.9-3.9-5.1l-0.2-0.1c-37.2-23.6-76.4-44.9-116.6-63.4l-0.8-0.3c-1.1-0.4-2.2-0.5-3.3-0.5-3 0-5.8 1.3-7.7 3.6-2.3 2.8-2.9 6.7-1.6 10 28.8 70.2 47.1 144.3 54.7 220.2z m-36.6-249.4c26.1 12 51.8 25 76.3 38.8l0.1 0.1c1.4 0.8 3.1 1.2 4.7 1.2 3.5 0 6.8-1.9 8.6-5 1.7-2.9 1.7-6.6 0.1-9.5-41.7-77.8-109.1-141.4-189.9-179.1-1.3-0.6-2.8-1-4.3-1-3.6 0-7 2-8.7 5.3-1.7 3.3-1.5 7.2 0.7 10.3l0.1 0.2c19.8 26.9 37.7 54.9 53.5 83.3l0.1 0.2c1.8 3.1 5.1 4.9 8.6 4.9h2.4c19.6 0 36.8 13.9 40.8 33.1 0.6 2.8 0.9 5.6 0.9 8.4 0.1 3.7 2.5 7.3 6 8.8z m-304.3-91.8c0.9 3.8 4 6.7 8 7.3h0.3c24 3.1 47.9 7 70.9 11.6 46.7 9.4 92.8 22 136.9 37.4h0.1c1 0.3 2.1 0.5 3.1 0.5 2.7 0 5.2-1 7.1-2.9l0.8-0.8c3-3 3.8-7.7 1.9-11.5l-0.2-0.3c-24.6-43.8-54-85.7-87.3-124.4-1.3-1.8-3.3-3.3-6.3-3.7-20.6-5.5-42.3-9.5-64.3-11.7-0.5-0.1-0.9-0.1-1.4-0.1-2.6 0-5.1 1.1-6.9 2.9-23.3 23.4-45.7 48.2-66.5 73.9-2.6 3.3-2.9 7.8-0.8 11.3 2 3.3 3.6 6.8 4.6 10.5z m20.5-100.5c-25.8 0.6-51.8 3.7-77.2 9.1-61.1 13.1-117.1 39-166.4 77.2l-0.5 0.4c-3.1 2.8-4.1 7.1-2.6 11 1.5 3.8 5.1 6.3 9.2 6.3H267.2c31.4-3 63.4-4.5 95.3-4.5 11.1 0 22.3 0.2 33.4 0.5h0.3c3.5 0 6.7-1.9 8.6-5l0.4-0.8c5.5-11.9 16.4-20.6 29.2-23.3 3-0.6 6-1 8.9-1 4.1 0 8.1 0.6 12 1.8 1 0.3 2 0.5 3 0.5 3 0 5.8-1.4 7.7-3.7 15.2-18.6 30-35.6 45.2-51.9l0.1-0.1c2.6-2.9 3.3-7.1 1.7-10.7-1.6-3.6-5.1-5.9-9-5.9l-0.2 0.1z" p-id="1626" fill="#f4ea2a"></path></svg>