<?xml version="1.0" standalone="no"?><!DOCTYPE svg PUBLIC "-//W3C//DTD SVG 1.1//EN" "http://www.w3.org/Graphics/SVG/1.1/DTD/svg11.dtd"><svg t="1615814919942" class="icon" viewBox="0 0 1024 1024" version="1.1" xmlns="http://www.w3.org/2000/svg" p-id="6098" xmlns:xlink="http://www.w3.org/1999/xlink" width="200" height="200"><defs><style type="text/css"></style></defs><path d="M938.4 779.7l-80.6-140.5c-6.6-11.5-21.3-15.5-32.8-8.9-11.5 6.6-15.5 21.3-8.9 32.8l61.7 107.5c-2.4-0.8-5-1.3-7.7-1.3H591.8c-13.3 0-24 10.7-24 24s10.7 24 24 24h278.3c2.4 0 4.7-0.3 6.8-1l-60.8 106.2c-6.6 11.5-2.6 26.2 8.9 32.8 11.5 6.6 26.2 2.6 32.8-8.9l80.6-140.7c2.3-4 3.3-8.5 3.2-12.8 0.1-4.5-0.9-9.1-3.2-13.2zM716.5 559.5c7.3-11 4.4-25.9-6.7-33.3-25.6-17-53.2-29.8-82.2-39.4 59.9-41.8 99.1-111.3 99.1-189.9 0-127.9-103.6-231.5-231.4-231.5-127.8 0-231.4 103.6-231.4 231.5 0 75.1 35.7 141.8 91.1 184.1C196.9 534.8 83.5 684.6 83.4 861c0 27.1 2.7 54.5 7.8 80.3 2.6 13 15.3 21.4 28.2 18.8 13-2.6 21.4-15.2 18.8-28.2-4.5-22.5-6.9-46.9-6.9-70.8-0.1-171.3 121.7-314.1 283-346.4 0.4-0.1 0.7-0.2 1-0.2 24.8 9.1 51.7 14.1 79.7 14.1 22.6 0 44.4-3.2 65-9.3 46.2 8.7 87.4 23.4 123 47 11.2 7.3 26.1 4.3 33.5-6.8z m-162.2-88.9c-2.5 0.4-4.8 1.1-7 2.2-16.5 4.9-33.9 7.5-52 7.6-101.4-0.1-183.3-82.1-183.5-183.4 0.2-101.3 82.1-183.3 183.4-183.5 101.3 0.2 183.2 82.2 183.4 183.5-0.1 80.6-52.1 149-124.3 173.6z" fill="#fb7299" p-id="6099"></path></svg>