<?xml version="1.0" standalone="no"?><!DOCTYPE svg PUBLIC "-//W3C//DTD SVG 1.1//EN" "http://www.w3.org/Graphics/SVG/1.1/DTD/svg11.dtd"><svg t="1614435980735" class="icon" viewBox="0 0 1024 1024" version="1.1" xmlns="http://www.w3.org/2000/svg" p-id="4032" xmlns:xlink="http://www.w3.org/1999/xlink" width="200" height="200"><defs><style type="text/css"></style></defs><path d="M301.056 203.776v-23.04c0-71.168 63.488-126.464 139.264-126.464h155.136c75.776 0 139.264 55.296 139.264 126.464v23.04h103.424c82.944 0 149.504 71.168 149.504 157.696v455.68c0 86.528-66.56 157.696-149.504 157.696H185.856C102.4 974.848 35.84 903.68 35.84 817.152v-455.68c0-86.528 66.56-157.696 149.504-157.696h115.712z m72.192 0h289.28v-23.04c0-28.672-29.184-54.272-67.072-54.272H440.32c-37.888 0-67.072 25.6-67.072 54.272v23.04z m93.696 432.128v-93.696c0-19.968 16.384-36.352 36.352-36.352 19.968 0 36.352 16.384 36.352 36.352v93.696h93.696c19.968 0 36.352 16.384 36.352 36.352 0 19.968-16.384 36.352-36.352 36.352h-93.184v93.696c0 19.968-16.384 36.352-36.352 36.352-19.968 0-36.352-16.384-36.352-36.352v-93.184H373.248c-19.968 0-36.352-16.384-36.352-36.352 0-19.968 16.384-36.352 36.352-36.352l93.696-0.512z m449.024-250.368v-24.576c0-47.616-35.328-85.504-77.312-85.504H185.344c-41.984 0-77.312 37.888-77.312 85.504v24.064h807.936z m0 72.192H108.032v359.424c0 47.616 35.328 85.504 77.312 85.504h652.8c41.984 0 77.312-37.888 77.312-85.504 0.512 0 0.512-359.424 0.512-359.424z" p-id="4033" fill="#f4ea2a"></path></svg>