<?xml version="1.0" standalone="no"?><!DOCTYPE svg PUBLIC "-//W3C//DTD SVG 1.1//EN" "http://www.w3.org/Graphics/SVG/1.1/DTD/svg11.dtd"><svg t="1614001559624" class="icon" viewBox="0 0 1656 1024" version="1.1" xmlns="http://www.w3.org/2000/svg" p-id="4247" xmlns:xlink="http://www.w3.org/1999/xlink" width="323.4375" height="200"><defs><style type="text/css"></style></defs><path d="M198.430622 1018.610526c-69.573206-14.208612-137.676555-66.143541-168.053589-128.367464-26.457416-52.914833-32.826794-102.4-26.457416-194.511005 10.288995-144.045933 49.97512-295.441148 108.279426-414.009569 37.236364-74.962679 62.713876-113.6689 105.829665-158.744498C292.991388 44.095694 373.833493 3.429665 456.145455 3.919617c51.934928 0 80.842105 9.799043 144.045933 47.525359 32.336842 19.108134 72.512919 38.216268 100.440191 47.525359 44.585646 15.188517 49.485167 15.678469 127.38756 15.678469s82.801914-0.489952 127.38756-15.678469c27.927273-9.309091 68.103349-28.417225 100.440191-47.525359 63.69378-37.726316 93.580861-48.015311 145.025837-47.525359 82.311962 0.489952 161.684211 40.176077 237.626795 119.548326 120.52823 125.427751 212.149282 389.02201 214.10909 616.359808 0.489952 55.854545-0.979904 77.41244-8.329186 100.440192-25.967464 85.741627-78.882297 142.576077-159.23445 170.013397-25.477512 8.819139-43.115789 11.2689-83.781818 11.268899-93.580861 0-142.576077-25.477512-227.827751-118.078469-140.126316-151.885167-177.362679-183.242105-243.996173-203.820095-29.397129-9.309091-46.545455-11.2689-101.420095-11.2689-132.777033 0-170.993301 24.007656-348.845933 218.51866-53.894737 58.794258-86.231579 83.291866-134.24689 100.930144-38.70622 13.71866-106.319617 19.108134-146.495694 10.778947z m276.822967-496.811483V445.856459h151.885167V347.866029H475.253589V200.880383H382.162679v146.985646H230.277512v97.99043h151.885167v151.885168h93.09091v-75.942584z m808.421052 22.047847v-53.894737h-107.789474v107.789474h107.789474v-53.894737z m-146.985646-146.985646V342.966507h-107.789473v107.789474h107.789473V396.861244z m289.071771 0V342.966507h-107.789474v107.789474h107.789474V396.861244z m-142.086125-142.086124V200.880383h-107.789474v107.789473h107.789474V254.77512z" fill="#E93340" p-id="4248"></path></svg>