<?xml version="1.0" standalone="no"?><!DOCTYPE svg PUBLIC "-//W3C//DTD SVG 1.1//EN" "http://www.w3.org/Graphics/SVG/1.1/DTD/svg11.dtd"><svg t="1614001534326" class="icon" viewBox="0 0 1024 1024" version="1.1" xmlns="http://www.w3.org/2000/svg" p-id="2729" xmlns:xlink="http://www.w3.org/1999/xlink" width="200" height="200"><defs><style type="text/css"></style></defs><path d="M630.26228 25.517457c97.57918-48.943177 219.322774-26.826595 293.147106 60.71821 70.957368 84.063491 75.769772 202.530554 19.659184 290.894491-14.027647 0-28.669644-2.355006-43.618814-6.860236-59.489511-17.918527-121.641202-67.066488-171.710688-127.682306-50.171876-60.71821-86.930455-131.573186-95.633739-192.905745-1.228699-8.293718-1.843049-16.382654-1.843049-24.164414zM137.246801 698.025384c-0.716741 43.516423 20.990275 67.476054 62.66365 74.233899L658.112791 461.807999C594.834792 421.363323 540.976818 354.911184 513.023916 284.977732L137.246801 698.025384z m15.051563 98.500704c-38.089669 40.03511-49.557527 81.606093-40.649459 112.528351 3.686097 12.696556 10.9559 23.652456 21.399841 31.741392 11.058291 8.600893 26.007462 14.334822 44.130773 15.870695 62.0493 5.426754 154.918467-35.017922 263.453547-157.68304C549.782495 675.80641 648.078416 617.340815 728.558201 603.108385c48.738394-8.600893 91.538076-1.433482 126.965565 17.406569 35.52988 18.840052 62.970824 49.147961 81.401309 86.828064 24.266806 49.76231 32.150958 112.733134 20.887884 178.468532-3.378922 19.556793-22.62854 31.946174-41.570984 26.621812-16.382654-4.607621-26.51942-21.092666-23.652456-37.987278 9.010459-51.70775 3.276531-100.241361-15.051563-137.819073-12.184599-25.085938-30.103126-44.949906-52.834057-57.032112-22.833323-12.082207-51.298184-16.485045-84.780232-10.546334-67.066488 11.877424-151.744328 63.789957-249.835466 174.47526-124.71295 140.89082-238.572392 186.76225-318.335436 179.799623-31.331825-2.764573-58.15842-13.413298-79.148695-29.69356-21.604624-16.894611-36.86097-39.625543-44.437947-65.94018-15.153954-52.3221 0.307175-118.364672 56.417763-177.342224l47.714478 46.178604zM906.2076 420.134624c-74.131507-24.778763-148.160623-83.039575-206.319043-153.382594C646.952108 202.552507 606.200258 127.397084 589.715213 57.36124c-43.516423 53.960365-61.230167 123.177076-51.605359 189.629214 26.621812 80.684569 95.736131 164.13371 172.734603 199.868373 64.506698 18.840052 135.771241 10.443942 195.363143-26.724203z m0 0" fill="#f39c12" p-id="2730"></path></svg>