<?xml version="1.0" standalone="no"?><!DOCTYPE svg PUBLIC "-//W3C//DTD SVG 1.1//EN" "http://www.w3.org/Graphics/SVG/1.1/DTD/svg11.dtd"><svg t="1614520587151" class="icon" viewBox="0 0 1212 1024" version="1.1" xmlns="http://www.w3.org/2000/svg" p-id="3619" xmlns:xlink="http://www.w3.org/1999/xlink" width="236.71875" height="200"><defs><style type="text/css"></style></defs><path d="M561.545083 1024z m538.223724-889.045705L966.134803 20.123066a34.145474 34.145474 0 0 0-35.511292-5.61124l-103.335586 43.171261-83.201139 52.766139a34.80562 34.80562 0 0 0-15.763827 32.847946l10.402988 102.277077-96.199182 66.765783-113.397119 13.53299-90.63347-49.658901-56.647341-110.938645a34.236529 34.236529 0 0 0-45.66388-15.399609L213.978303 210.27921a34.771474 34.771474 0 0 0-19.349102 31.220345v45.413481l-40.667259 40.132313H107.660679a34.145474 34.145474 0 0 0-23.901831 9.731461l-61.894363 60.32367a34.976347 34.976347 0 0 0 0 50.000356l54.26854 52.811666 31.140672 149.101903a34.55522 34.55522 0 0 0 12.235462 20.054775l112.862173 91.157034a34.270674 34.270674 0 0 0 21.443358 7.682731h124.289525v75.575316a34.55522 34.55522 0 0 0 34.37311 34.725947h138.550952l62.600035 43.080206a33.986128 33.986128 0 0 0 36.36493 1.456874l85.27263-49.169483 117.471813-44.673661a34.760092 34.760092 0 0 0 15.638627-12.053353l73.902187-102.561622a35.283656 35.283656 0 0 0 6.601458-20.362084v-101.138894a35.010493 35.010493 0 0 0-10.368842-24.857905l-43.182643-42.363151 54.723813-36.421839a34.657656 34.657656 0 0 0 11.894007-13.498844l38.390895-77.396408 97.018673-68.222656a34.908056 34.908056 0 0 0 14.705317-28.454562V161.417037a34.80562 34.80562 0 0 0-12.144407-26.45136z m-56.601814 148.441757l-89.563578 63.032545a35.010493 35.010493 0 0 0-11.074516 12.929753l-38.106349 76.815934-82.825538 55.156322a34.942202 34.942202 0 0 0-5.076294 53.904322l63.465055 62.395163v75.120042l-61.256981 85.227103-112.748355 42.932243-71.23884 40.701405-53.733594-36.934021a33.804019 33.804019 0 0 0-19.349102-6.032367H446.907345v-75.518407a34.589365 34.589365 0 0 0-34.373111-34.725947H265.902187l-93.854526-75.962297-30.730926-147.417393a34.521074 34.521074 0 0 0-9.833897-17.755647l-36.080384-35.283656 31.573182-25.495287h41.190823a34.145474 34.145474 0 0 0 24.01565-9.868042l61.120399-60.323671a34.942202 34.942202 0 0 0 10.334696-24.857905l-5.747821-10.801352 78.40939-63.282945 45.527298 89.916415a34.873911 34.873911 0 0 0 14.261427 14.716699l109.629735 60.323671a34.725947 34.725947 0 0 0 20.487284 3.86982l132.564112-15.877645a34.623511 34.623511 0 0 0 15.41099-5.86164l120.066869-83.201138a34.80562 34.80562 0 0 0 14.705317-32.176418l-10.243642-101.29824 60.004979-38.618531 78.659791-32.392673 105.611951 90.735907v105.850969z" fill="#B39800" p-id="3620"></path></svg>