<?xml version="1.0" standalone="no"?><!DOCTYPE svg PUBLIC "-//W3C//DTD SVG 1.1//EN" "http://www.w3.org/Graphics/SVG/1.1/DTD/svg11.dtd"><svg t="1614088229752" class="icon" viewBox="0 0 1024 1024" version="1.1" xmlns="http://www.w3.org/2000/svg" p-id="5262" xmlns:xlink="http://www.w3.org/1999/xlink" width="200" height="200"><defs><style type="text/css"></style></defs><path d="M751.559633 236.307692c-13.007763 0-23.847565-10.839802-23.847565-23.847565L727.712068 33.242061c0-13.007763 10.839802-23.847565 23.847565-23.847565 13.007763 0 23.847565 10.839802 23.847565 23.847565l0 179.218066C775.407198 226.190543 764.567396 236.307692 751.559633 236.307692z" p-id="5263" fill="#d4237a"></path><path d="M273.16302 236.307692c-13.007763 0-23.847565-10.839802-23.847565-23.847565L249.315455 33.242061c0-13.007763 10.839802-23.847565 23.847565-23.847565s23.847565 10.839802 23.847565 23.847565l0 179.218066C297.010586 226.190543 286.170783 236.307692 273.16302 236.307692z" p-id="5264" fill="#d4237a"></path><path d="M930.777699 984.254058 93.222301 984.254058c-46.249824 0-83.827805-37.577982-83.827805-83.827805L9.394495 182.831334c0-46.249824 37.577982-83.827805 83.827805-83.827805l836.832745 0c46.249824 0 83.827805 37.577982 83.827805 83.827805l0 717.594919C1014.605505 946.676076 977.027523 984.254058 930.777699 984.254058zM93.222301 146.698659c-19.511644 0-36.132675 15.898377-36.132675 36.132675l0 717.594919c0 19.511644 15.898377 36.132675 36.132675 36.132675l836.832745 0c19.511644 0 36.132675-15.898377 36.132675-36.132675L966.187721 182.831334c0-19.511644-15.898377-36.132675-36.132675-36.132675L93.222301 146.698659z" p-id="5265" fill="#d4237a"></path><path d="M452.381087 800.700071c-3.613267 0-7.226535-0.722653-10.117149-2.16796-11.562456-5.781228-16.62103-20.234298-10.839802-31.796754L607.028934 402.517996 323.026112 402.517996c-13.007763 0-23.847565-10.839802-23.847565-23.847565s10.839802-23.847565 23.847565-23.847565l322.303458 0c7.949188 0 15.898377 4.335921 20.234298 11.562456 4.335921 7.226535 5.058574 15.898377 1.445307 23.124912L474.060692 787.692308C469.724771 795.641496 461.052929 800.700071 452.381087 800.700071z" p-id="5266" fill="#d4237a"></path></svg>