<?xml version="1.0" standalone="no"?><!DOCTYPE svg PUBLIC "-//W3C//DTD SVG 1.1//EN" "http://www.w3.org/Graphics/SVG/1.1/DTD/svg11.dtd"><svg t="1614342856877" class="icon" viewBox="0 0 1024 1024" version="1.1" xmlns="http://www.w3.org/2000/svg" p-id="3787" xmlns:xlink="http://www.w3.org/1999/xlink" width="200" height="200"><defs><style type="text/css"></style></defs><path d="M567.316764 92.754241c-2.832578 2.637228-5.811669 4.883756-8.644248 7.765171-4.444218 4.444218-8.448897 9.327973-12.404739 14.016379l307.18823 307.18823c4.883756-4.00468 9.767511-7.960522 14.016379-12.453577 2.734903-2.734903 5.225619-5.713994 7.765171-8.644247z m-441.491511 685.190917a6.739583 6.739583 0 0 0-1.953502 4.883756 6.446557 6.446557 0 0 0 1.953502 4.883755l54.844576 54.844576a6.886095 6.886095 0 0 0 9.474486 0l14.651267-14.651267-64.319062-64.319062z m196.47349-168.050032l31.842087-31.842087 31.842086 31.842087-31.842086 31.842087zM446.199624 376.012068l145.828943 145.975456 42.293324-37.16538-150.956887-150.956887z" fill="#FF8000" p-id="3788"></path><path d="M893.35629 74.733182a254.83437 254.83437 0 0 0-430.69841 227.143476l-355.293223 404.326129a18.216409 18.216409 0 0 0 0.781401 24.955992l19.290834 19.290835-14.651266 14.651267a24.809479 24.809479 0 0 0-7.276796 17.679195 25.249017 25.249017 0 0 0 7.276796 17.679195l8.107034 8.107035-32.135112 32.135112a9.132623 9.132623 0 0 0 0 12.893115l6.153532 6.153532-12.99079 12.99079a87.223876 87.223876 0 0 0 119.603176 126.977647 11.330313 11.330313 0 0 0 3.320953-2.051178l90.642505-90.642504a69.202818 69.202818 0 0 1 97.675113 97.675113 9.132623 9.132623 0 0 0 0 12.893114 8.937273 8.937273 0 0 0 6.495395 2.637229 9.425648 9.425648 0 0 0 6.495395-2.637229 87.272713 87.272713 0 0 0-119.749688-126.977646 11.330313 11.330313 0 0 0-3.320954 2.051177l-90.642505 90.642505a69.202818 69.202818 0 1 1-97.675113-97.675113l12.99079-12.99079 6.739583 6.739583a8.937273 8.937273 0 0 0 6.495395 2.637228 9.425648 9.425648 0 0 0 6.495395-2.637228l32.135112-32.135112 8.107035 8.107034a25.053666 25.053666 0 0 0 35.35839 0l14.651267-14.651267 19.290835 19.290835a18.216409 18.216409 0 0 0 24.955992 0.781401l404.081942-355.293224a253.955294 253.955294 0 0 0 227.143475-70.228406 255.176233 255.176233 0 0 0 0.146512-360.518842zM121.185685 859.699227l-6.739583-6.739582-6.153532-6.153532 25.639717-25.639718 12.893115 12.893115-25.639717 25.639717z m69.105143-17.58152a6.886095 6.886095 0 0 1-9.474486 0l-54.746901-54.746901a6.641908 6.641908 0 0 1-1.953502-4.883755 6.934933 6.934933 0 0 1 1.953502-4.883756l14.651267-14.651267 64.319062 64.319062z m60.412057-20.316423l-104.463533-104.463534 288.141583-327.602328 144.266142 144.266141z m341.276845-299.911435L446.004273 376.207418l37.165381-42.293323 150.956887 151.103399z m79.458704-52.793398h-1.123264l-170.931448-170.931448A217.327126 217.327126 0 0 1 535.083976 128.845195l303.867277 303.867276a217.473639 217.473639 0 0 1-167.610494 36.530493z m196.131627-59.874844a197.303728 197.303728 0 0 1-14.016379 12.404739l-307.18823-307.18823c4.00468-4.883756 7.960522-9.767511 12.404739-14.016379 2.734903-2.734903 5.713994-5.225619 8.644248-7.765171L875.38407 400.626197c-2.686066 2.930253-5.079106 5.909344-7.911684 8.79076z m19.535022-22.807139l-305.576591-305.576591a218.108527 218.108527 0 0 1 305.576591 305.576591z" fill="#CC4600" p-id="3789"></path><path d="M397.996955 508.361846l-50.302683 50.302683-44.686364 44.686365a9.132623 9.132623 0 0 0 0 12.893114l44.686364 44.686365a8.937273 8.937273 0 0 0 6.495395 2.637228 9.425648 9.425648 0 0 0 6.495395-2.637228l44.686364-44.686365 50.302683-50.302683a9.376811 9.376811 0 0 0 0-12.99079l-44.686364-44.686364a9.767511 9.767511 0 0 0-12.99079 0.097675z m-43.953801 133.424204l-31.793249-31.793249 31.793249-31.793249 31.79325 31.793249z m44.832877-44.686364l-31.793249-31.793249 37.409568-37.409568 31.79325 31.793249z" fill="#CC4600" p-id="3790"></path></svg>